<svg width="252" height="37" viewBox="0 0 252 37" fill="none" xmlns="http://www.w3.org/2000/svg">
<g clip-path="url(#clip0_335_1047)">
<path d="M3.8509 3.01123H0.724121V36.5955H19.4377V33.4687H3.8509V3.01123Z" fill="#4E9C94"/>
<path d="M51.8721 5.72785H62.651V36.6829H65.7745V5.72785H76.5534V2.60107H51.8721V5.72785Z" fill="#4E9C94"/>
<path d="M85.0429 2.05298H81.9161V36.6829H85.0429V2.05298Z" fill="#4E9C94"/>
<path d="M90.7686 5.72785H101.541V36.6829H104.668V5.72785H115.443V2.60107H90.7686V5.72785Z" fill="#4E9C94"/>
<path d="M144.394 22.5722C144.394 28.5803 139.614 33.4689 133.74 33.4689C127.866 33.4689 123.082 28.5803 123.082 22.5722V2.37256H119.955V22.5722C119.955 30.3051 126.138 36.5956 133.74 36.5956C141.342 36.5956 147.525 30.3051 147.525 22.5722V2.37256H144.398L144.394 22.5722Z" fill="#4E9C94"/>
<path d="M204.143 5.72785V2.60107H184.051V36.5955H204.143V33.4688H187.178V21.4592H202.142V18.3325H187.178V5.72785H204.143Z" fill="#4E9C94"/>
<path d="M159.433 2.60088H153.415V36.5853H159.433C161.685 36.6169 163.922 36.2007 166.012 35.3607C168.101 34.5207 170.004 33.2738 171.608 31.6923C173.211 30.1108 174.485 28.2263 175.354 26.1484C176.224 24.0705 176.671 21.8405 176.671 19.588C176.671 17.3356 176.224 15.1056 175.354 13.0276C174.485 10.9497 173.211 9.06523 171.608 7.48375C170.004 5.90227 168.101 4.65531 166.012 3.81534C163.922 2.97536 161.685 2.55912 159.433 2.59079V2.60088ZM159.433 33.4686H156.542V5.72766H159.433C161.273 5.69901 163.1 6.03662 164.808 6.72082C166.516 7.40502 168.071 8.42214 169.382 9.71297C170.693 11.0038 171.734 12.5425 172.445 14.2396C173.155 15.9367 173.521 17.7582 173.521 19.5981C173.521 21.438 173.155 23.2595 172.445 24.9566C171.734 26.6537 170.693 28.1924 169.382 29.4832C168.071 30.7741 166.516 31.7912 164.808 32.4754C163.1 33.1596 161.273 33.4972 159.433 33.4686Z" fill="#4E9C94"/>
<path d="M25.5567 36.5955L39.1128 7.74171L53.5834 36.5955H57.08L39.022 0.58374L22.1005 36.5955H25.5567Z" fill="#4E9C94"/>
<path d="M249.074 2.60107H242.912L231.033 15.3839L219.151 2.60107H212.989L227.95 18.7023L211.321 36.5955H217.484L231.033 22.0174L244.579 36.5955H250.742L234.113 18.7023L249.074 2.60107Z" fill="#F3954A"/>
</g>
<defs>
<clipPath id="clip0_335_1047">
<rect width="250.478" height="36.311" fill="white" transform="translate(0.569458 0.441162)"/>
</clipPath>
</defs>
</svg>
