<svg xmlns="http://www.w3.org/2000/svg" xmlns:xlink="http://www.w3.org/1999/xlink" viewBox="0 0 1681 450"><defs><style>.cls-1{fill:#294c4b;}.cls-2{fill:#95c1bf;}.cls-3{fill:url(#Sfumatura_senza_nome_79);}.cls-4{fill:#386b6b;}</style><linearGradient id="Sfumatura_senza_nome_79" x1="228.76" y1="3.54" x2="228.76" y2="446.46" gradientUnits="userSpaceOnUse"><stop offset="0.03" stop-color="#95c1bf"/><stop offset="0.08" stop-color="#294c4b"/><stop offset="0.59" stop-color="#294c4b"/><stop offset="0.63" stop-color="#79bfbf"/><stop offset="0.68" stop-color="#73b6b6"/><stop offset="0.78" stop-color="#619d9c"/><stop offset="0.9" stop-color="#457473"/><stop offset="1" stop-color="#294c4b"/></linearGradient></defs><title>latitudeX-logo-default</title><g id="block"><path class="cls-1" d="M535.39,296.71v-146h12.7V285.32h70.72v11.39Z"/><path class="cls-1" d="M750.19,296.71,735.73,260.8H658.44L644,296.71H629.54l59.78-146h15.54l59.78,146ZM697.2,164l-34.6,85.39h69Z"/><path class="cls-1" d="M808.21,296.71V162.05H760.48V150.66H868.64v11.39H820.91V296.71Z"/><path class="cls-1" d="M894.49,296.71v-146H907v146Z"/><path class="cls-1" d="M980.53,296.71V162.05H932.8V150.66H1041v11.39H993.23V296.71Z"/><path class="cls-1" d="M1066.8,240.65v-90h12.7v89.78c0,29.56,15.55,47.51,44.23,47.51S1168,270,1168,240.44V150.66h12.7v90c0,36.13-19.27,58.69-56.93,58.69C1086.29,299.34,1066.8,276.56,1066.8,240.65Z"/><path class="cls-1" d="M1217,296.71v-146h46.64c45.32,0,73.79,33.07,73.79,73.13,0,40.51-28.47,72.92-73.79,72.92Zm107.29-72.92c0-34.15-21.9-61.74-60.65-61.74h-34.16V285.32h34.16C1302.18,285.32,1324.3,258,1324.3,223.79Z"/><path class="cls-1" d="M1368.53,296.71v-146h92.62v11.39H1381v54.08h78.6v11.39H1381v57.8h80.14v11.39Z"/><path class="cls-1" d="M1636.31,296.71l-31.75-49-31.75,49h-44.44l50.8-74.89-47.52-71.16h44.45l28.46,45.77,28.25-45.77h44.67L1630,221.6l50.8,75.11Z"/><g id="base"><circle class="cls-2" cx="228.76" cy="225" r="217.03"/><path class="cls-1" d="M228.76,450A225,225,0,0,1,69.66,65.9a225,225,0,0,1,318.2,318.2A223.5,223.5,0,0,1,228.76,450Zm0-434.06A209.06,209.06,0,0,0,80.94,372.82,209.05,209.05,0,1,0,376.59,77.18,207.7,207.7,0,0,0,228.76,15.94Z"/><path id="grades" class="cls-1" d="M247.87,22.06l-2.23,25.43a1.33,1.33,0,0,1-1.32,1.22h-.12A1.33,1.33,0,0,1,243,47.26l2.23-25.43a1.33,1.33,0,0,1,2.65.23Zm16.55.9A1.33,1.33,0,0,0,262.88,24l-4.44,25.14a1.33,1.33,0,0,0,1.08,1.54l.23,0a1.34,1.34,0,0,0,1.31-1.1L265.5,24.5A1.34,1.34,0,0,0,264.42,23Zm17.48,3.88a1.32,1.32,0,0,0-1.62.94l-6.62,24.66a1.33,1.33,0,0,0,.94,1.63,1.39,1.39,0,0,0,.35,0,1.33,1.33,0,0,0,1.28-1l6.61-24.66A1.33,1.33,0,0,0,281.9,26.84ZM299,32.23a1.33,1.33,0,0,0-1.71.79l-8.74,24a1.34,1.34,0,0,0,.8,1.71,1.42,1.42,0,0,0,.45.08,1.34,1.34,0,0,0,1.25-.88l8.74-24A1.32,1.32,0,0,0,299,32.23Zm16.54,6.86a1.33,1.33,0,0,0-1.76.64L303,62.87a1.33,1.33,0,0,0,.64,1.76,1.24,1.24,0,0,0,.56.13,1.35,1.35,0,0,0,1.21-.77l10.8-23.14A1.32,1.32,0,0,0,315.53,39.09Zm1.78,32.68a1.33,1.33,0,0,0,1.82-.48L331.9,49.18a1.33,1.33,0,0,0-2.3-1.33L316.83,70A1.32,1.32,0,0,0,317.31,71.77Zm13,8.31a1.33,1.33,0,0,0,1.85-.32l14.66-20.91a1.33,1.33,0,0,0-2.18-1.53L330,78.23A1.32,1.32,0,0,0,330.34,80.08Zm12.25,9.41a1.34,1.34,0,0,0,1.88-.16l16.42-19.55a1.33,1.33,0,0,0-2-1.71L342.43,87.62A1.33,1.33,0,0,0,342.59,89.49Zm21.82,21.85a1.33,1.33,0,0,0,1,.47,1.31,1.31,0,0,0,.85-.31l19.57-16.4a1.32,1.32,0,1,0-1.7-2l-19.57,16.4A1.32,1.32,0,0,0,364.41,111.34Zm9.4,12.26a1.33,1.33,0,0,0,1.85.33l20.93-14.63a1.33,1.33,0,0,0-1.53-2.18l-20.92,14.63A1.33,1.33,0,0,0,373.81,123.6Zm8.29,13a1.33,1.33,0,0,0,1.15.67,1.35,1.35,0,0,0,.67-.18L406,124.38a1.33,1.33,0,1,0-1.33-2.3l-22.12,12.75A1.32,1.32,0,0,0,382.1,136.64Zm7.12,13.71a1.33,1.33,0,0,0,1.21.77A1.38,1.38,0,0,0,391,151l23.15-10.77a1.33,1.33,0,0,0-1.12-2.41l-23.15,10.77A1.32,1.32,0,0,0,389.22,150.35Zm5.9,14.28a1.34,1.34,0,0,0,1.25.88,1.38,1.38,0,0,0,.45-.08l24-8.71a1.33,1.33,0,0,0-.91-2.5l-24,8.71A1.33,1.33,0,0,0,395.12,164.63Zm4.63,14.74a1.33,1.33,0,0,0,1.29,1,1.32,1.32,0,0,0,.34,0l24.67-6.59a1.33,1.33,0,0,0-.68-2.57l-24.67,6.59A1.33,1.33,0,0,0,399.75,179.37Zm3.33,15.09a1.34,1.34,0,0,0,1.31,1.1.9.9,0,0,0,.23,0l25.15-4.4a1.33,1.33,0,0,0-.46-2.62l-25.15,4.4A1.34,1.34,0,0,0,403.08,194.46Zm2,15.32A1.33,1.33,0,0,0,406.4,211h.12L432,208.8a1.33,1.33,0,1,0-.23-2.65l-25.44,2.2A1.32,1.32,0,0,0,405.08,209.78Zm26.84,31.93-25.44-2.26a1.33,1.33,0,0,0-.23,2.65l25.43,2.26h.12a1.33,1.33,0,0,0,.12-2.65Zm-2.23,17.66-25.14-4.47a1.33,1.33,0,1,0-.47,2.61L429.22,262a.93.93,0,0,0,.23,0,1.33,1.33,0,0,0,.24-2.63Zm-3.77,17.39-24.65-6.64a1.33,1.33,0,1,0-.69,2.56l24.65,6.65a1.39,1.39,0,0,0,.35,0,1.33,1.33,0,0,0,.34-2.61Zm-5.26,17-24-8.77a1.33,1.33,0,1,0-.92,2.5l24,8.77a1.48,1.48,0,0,0,.46.08,1.33,1.33,0,0,0,.46-2.58Zm-6.73,16.48L390.8,299.41a1.32,1.32,0,0,0-1.76.64,1.33,1.33,0,0,0,.64,1.77l23.12,10.82a1.24,1.24,0,0,0,.56.13,1.33,1.33,0,0,0,.57-2.53Zm-8.14,15.82-22.1-12.8a1.33,1.33,0,0,0-1.33,2.3l22.09,12.8a1.33,1.33,0,1,0,1.34-2.3Zm-9.49,15.06-20.89-14.68a1.33,1.33,0,1,0-1.53,2.17l20.89,14.68a1.34,1.34,0,0,0,.76.24,1.33,1.33,0,0,0,.77-2.41ZM366,338.84a1.33,1.33,0,1,0-1.71,2l19.53,16.45a1.31,1.31,0,0,0,.85.31,1.33,1.33,0,0,0,.86-2.34ZM344.13,361a1.33,1.33,0,0,0-2,1.7l16.37,19.59a1.32,1.32,0,0,0,1,.48,1.29,1.29,0,0,0,.85-.31,1.32,1.32,0,0,0,.17-1.87Zm-12.3,9.54a1.33,1.33,0,1,0-2.18,1.52l14.6,21a1.33,1.33,0,0,0,2.18-1.52Zm-13.08,8.44a1.33,1.33,0,0,0-2.31,1.32l12.72,22.14a1.33,1.33,0,0,0,1.15.67,1.28,1.28,0,0,0,.66-.18,1.32,1.32,0,0,0,.49-1.81ZM305,386.2a1.32,1.32,0,0,0-1.76-.65,1.34,1.34,0,0,0-.65,1.77l10.74,23.16a1.33,1.33,0,0,0,1.21.77,1.38,1.38,0,0,0,.56-.12,1.34,1.34,0,0,0,.64-1.77Zm-14.35,6a1.32,1.32,0,0,0-1.7-.79,1.34,1.34,0,0,0-.8,1.7l8.68,24a1.34,1.34,0,0,0,1.25.88,1.48,1.48,0,0,0,.46-.08,1.32,1.32,0,0,0,.79-1.7ZM275.8,397a1.33,1.33,0,0,0-2.57.68l6.55,24.68a1.33,1.33,0,0,0,1.29,1,1.32,1.32,0,0,0,.34,0,1.33,1.33,0,0,0,.94-1.63Zm-15.18,3.45a1.33,1.33,0,1,0-2.62.46l4.38,25.15a1.32,1.32,0,0,0,1.3,1.1.86.86,0,0,0,.23,0A1.31,1.31,0,0,0,265,425.6Zm-16.86.9a1.32,1.32,0,0,0-1.21,1.43l2.16,25.45a1.33,1.33,0,0,0,1.32,1.21h.12a1.33,1.33,0,0,0,1.21-1.44l-2.16-25.44A1.34,1.34,0,0,0,243.76,401.34Zm-30.87-.08a1.34,1.34,0,0,0-1.45,1.21l-2.29,25.42a1.34,1.34,0,0,0,1.21,1.45h.12a1.33,1.33,0,0,0,1.32-1.21l2.29-25.43A1.32,1.32,0,0,0,212.89,401.26Zm-15.32-2.06a1.34,1.34,0,0,0-1.54,1.08l-4.5,25.13A1.33,1.33,0,0,0,192.6,427a1,1,0,0,0,.24,0,1.34,1.34,0,0,0,1.31-1.09l4.5-25.13A1.34,1.34,0,0,0,197.57,399.2Zm-15.07-3.38a1.33,1.33,0,0,0-1.63.93l-6.68,24.65a1.33,1.33,0,0,0,2.57.7l6.67-24.65A1.33,1.33,0,0,0,182.5,395.82Zm-14.73-4.69a1.32,1.32,0,0,0-1.7.79l-8.8,24a1.34,1.34,0,0,0,.79,1.71,1.44,1.44,0,0,0,.46.08,1.31,1.31,0,0,0,1.24-.87l8.8-24A1.34,1.34,0,0,0,167.77,391.13Zm-14.26-5.95a1.32,1.32,0,0,0-1.76.64l-10.86,23.11a1.33,1.33,0,0,0,.64,1.77,1.38,1.38,0,0,0,.56.12,1.34,1.34,0,0,0,1.21-.76L154.15,387A1.33,1.33,0,0,0,153.51,385.18ZM139.83,378a1.33,1.33,0,0,0-1.82.48l-12.83,22.07a1.33,1.33,0,0,0,2.3,1.34l12.83-22.08A1.32,1.32,0,0,0,139.83,378Zm-13-8.34A1.32,1.32,0,0,0,125,370l-14.71,20.87a1.33,1.33,0,0,0,.32,1.85,1.37,1.37,0,0,0,.77.24,1.32,1.32,0,0,0,1.09-.56l14.7-20.87A1.32,1.32,0,0,0,126.82,369.67Zm-12.23-9.45a1.33,1.33,0,0,0-1.87.16L96.25,379.89a1.34,1.34,0,0,0,1,2.19,1.31,1.31,0,0,0,1-.48l16.47-19.5A1.34,1.34,0,0,0,114.59,360.22Zm-21.76-21.9a1.34,1.34,0,0,0-1.87-.17L71.35,354.5a1.33,1.33,0,0,0,.85,2.35,1.36,1.36,0,0,0,.85-.3L92.66,340.2A1.34,1.34,0,0,0,92.83,338.32ZM83.46,326a1.32,1.32,0,0,0-1.85-.34l-21,14.58a1.33,1.33,0,1,0,1.52,2.18l21-14.57A1.33,1.33,0,0,0,83.46,326ZM75.2,313a1.33,1.33,0,0,0-1.81-.5l-22.15,12.7a1.33,1.33,0,0,0-.5,1.81,1.33,1.33,0,0,0,1.82.49l22.15-12.69A1.32,1.32,0,0,0,75.2,313Zm-7.08-13.73a1.33,1.33,0,0,0-1.77-.65L43.18,309.31a1.33,1.33,0,0,0,.55,2.54,1.24,1.24,0,0,0,.56-.13L67.47,301A1.34,1.34,0,0,0,68.12,299.25ZM62.25,285a1.33,1.33,0,0,0-1.7-.8l-24,8.65a1.33,1.33,0,0,0,.45,2.58,1.19,1.19,0,0,0,.45-.08l24-8.65A1.33,1.33,0,0,0,62.25,285ZM57.66,270.2a1.34,1.34,0,0,0-1.63-.95l-24.68,6.53a1.33,1.33,0,0,0,.34,2.61,1.4,1.4,0,0,0,.34-.05l24.68-6.52A1.33,1.33,0,0,0,57.66,270.2Zm-3.29-15.1A1.34,1.34,0,0,0,52.83,254l-25.16,4.34A1.33,1.33,0,0,0,27.9,261l.22,0,25.16-4.34A1.34,1.34,0,0,0,54.37,255.1Zm-2-15.32A1.34,1.34,0,0,0,51,238.56L25.53,240.7a1.33,1.33,0,0,0,.11,2.65h.11l25.44-2.13A1.33,1.33,0,0,0,52.41,239.78Zm-26.76-32,25.43,2.33h.12a1.33,1.33,0,0,0,.12-2.65l-25.43-2.32a1.33,1.33,0,1,0-.24,2.64Zm2.28-17.65,25.12,4.53a1,1,0,0,0,.24,0,1.33,1.33,0,0,0,.24-2.64L28.4,187.52a1.33,1.33,0,0,0-1.54,1.07A1.31,1.31,0,0,0,27.93,190.13Zm3.8-17.38,24.64,6.7a1.06,1.06,0,0,0,.35.05,1.33,1.33,0,0,0,.35-2.61l-24.64-6.71a1.33,1.33,0,0,0-.7,2.57Zm5.31-17,24,8.83a1.24,1.24,0,0,0,.46.08,1.33,1.33,0,0,0,.46-2.57l-24-8.83a1.33,1.33,0,1,0-.92,2.49Zm6.77-16.46,23.1,10.89a1.39,1.39,0,0,0,.56.13,1.35,1.35,0,0,0,1.21-.77,1.33,1.33,0,0,0-.64-1.77L45,136.9a1.33,1.33,0,1,0-1.14,2.4ZM52,123.5l22.06,12.86a1.33,1.33,0,1,0,1.34-2.3L53.33,121.2A1.33,1.33,0,0,0,52,123.5Zm9.53-15L82.37,123.2a1.37,1.37,0,0,0,.77.24,1.3,1.3,0,0,0,1.08-.56,1.32,1.32,0,0,0-.31-1.85L63.05,106.29a1.33,1.33,0,0,0-1.53,2.17Zm30.29,2.36a1.33,1.33,0,0,0,1.72-2L74,92.29a1.33,1.33,0,0,0-1.72,2Zm21.93-22.07a1.31,1.31,0,0,0,1,.48,1.36,1.36,0,0,0,.85-.3,1.33,1.33,0,0,0,.17-1.87L99.46,67.42a1.33,1.33,0,0,0-2,1.7Zm12.32-9.51a1.33,1.33,0,1,0,2.18-1.51l-14.55-21a1.33,1.33,0,1,0-2.18,1.51Zm13.11-8.4a1.31,1.31,0,0,0,1.15.67,1.34,1.34,0,0,0,.66-.18,1.31,1.31,0,0,0,.49-1.81L128.81,47.35a1.33,1.33,0,0,0-2.31,1.32Zm5.51-31.53a1.33,1.33,0,0,0-2.41,1.11L153,63.61a1.33,1.33,0,0,0,1.21.77,1.38,1.38,0,0,0,.56-.12,1.34,1.34,0,0,0,.65-1.76Zm16.52-6.63a1.33,1.33,0,1,0-2.5.9l8.62,24a1.32,1.32,0,0,0,1.25.88,1.41,1.41,0,0,0,.45-.07,1.33,1.33,0,0,0,.8-1.7Zm17-5.16a1.32,1.32,0,0,0-1.62-.94,1.33,1.33,0,0,0-1,1.62l6.49,24.69a1.33,1.33,0,0,0,1.29,1,1.37,1.37,0,0,0,.34,0,1.32,1.32,0,0,0,.94-1.62Zm17.42-3.65a1.33,1.33,0,1,0-2.62.45l4.31,25.16a1.34,1.34,0,0,0,1.31,1.11l.23,0A1.33,1.33,0,0,0,200,49Zm16.24-3.34A1.33,1.33,0,0,0,210.67,22l2.1,25.45a1.33,1.33,0,0,0,1.33,1.22h.11a1.33,1.33,0,0,0,1.21-1.44l-2.1-25.44A1.33,1.33,0,0,0,211.89,20.53ZM228.76,6.18a2.22,2.22,0,0,0-2.21,2.22V59.46a2.22,2.22,0,1,0,4.43,0V8.4A2.22,2.22,0,0,0,228.76,6.18Zm118.57,100.4a2.22,2.22,0,0,0,1.57.65,2.2,2.2,0,0,0,1.56-.65l30.11-30.07a2.21,2.21,0,1,0-3.13-3.13l-30.11,30.07A2.22,2.22,0,0,0,347.33,106.58Zm98,116.48L394.3,223h0a2.22,2.22,0,1,0,0,4.43l51.06.06h0a2.21,2.21,0,1,0,0-4.42Zm-217,165.26h0a2.23,2.23,0,0,0-2.22,2.21L226,441.6a2.21,2.21,0,0,0,2.21,2.22h0a2.23,2.23,0,0,0,2.22-2.21l.12-51.07A2.21,2.21,0,0,0,228.35,388.32ZM109.9,343.13a2.2,2.2,0,0,0-3.13,0l-30.19,30a2.21,2.21,0,1,0,3.12,3.14l30.19-30A2.21,2.21,0,0,0,109.9,343.13ZM63.23,226.59a2.21,2.21,0,0,0,0-4.42L12.17,222h0a2.22,2.22,0,0,0,0,4.43l51.07.19ZM107.65,106a2.26,2.26,0,0,0,1.58.65,2.21,2.21,0,0,0,1.57-3.77l-30-30.23a2.21,2.21,0,1,0-3.14,3.12ZM350.17,343.72a2.22,2.22,0,0,0-3.14,3.13l30,30.15a2.22,2.22,0,0,0,3.14-3.13Z"/><path class="cls-3" d="M228.76,446.46a221.46,221.46,0,0,1-156.59-378A221.46,221.46,0,0,1,385.36,381.59,220,220,0,0,1,228.76,446.46Zm0-434.06A212.6,212.6,0,0,0,78.43,375.33,212.6,212.6,0,1,0,379.09,74.67,211.21,211.21,0,0,0,228.76,12.4Z"/></g><g id="X"><path class="cls-4" d="M247.55,225l87.16-87.16a13.29,13.29,0,1,0-18.79-18.79l-87.16,87.16L141.6,119.05a13.29,13.29,0,1,0-18.79,18.79L210,225l-87.16,87.16A13.29,13.29,0,0,0,141.6,331l87.16-87.16L315.92,331a13.29,13.29,0,0,0,18.79-18.79Z"/><path class="cls-1" d="M334.71,331a13.28,13.28,0,0,0,0-18.79L247.55,225H228.76Z"/><path class="cls-1" d="M122.81,331a13.28,13.28,0,0,0,18.79,0l87.16-87.16V225Z"/><path class="cls-1" d="M334.71,119.05a13.28,13.28,0,0,0-18.79,0l-87.16,87.16V225Z"/><path class="cls-1" d="M122.81,119.05a13.28,13.28,0,0,0,0,18.79L210,225h18.79Z"/></g><g id="pointer"><path class="cls-4" d="M412.52,83.7,417.76,36l-46.83,5.39A235.22,235.22,0,0,1,412.52,83.7Z"/><path class="cls-1" d="M417.76,36l-46.83,5.39C378.62,47.45,392.8,61,392.8,61Z"/></g><g id="symbols"><path id="sea" class="cls-1" d="M257.87,350.08a1.53,1.53,0,0,1,0,3.06,14.44,14.44,0,0,1-10.35-3.87c-1.6-1.31-2.76-2.26-5-2.26s-3.5,1.07-5,2.42c-1.85,1.65-4.15,3.71-8.78,3.71s-6.92-2.06-8.77-3.71c-1.51-1.35-2.71-2.42-5-2.42s-3.37.95-5,2.26a14.43,14.43,0,0,1-10.34,3.87,1.53,1.53,0,1,1,0-3.06,11.42,11.42,0,0,0,8.41-3.18c1.77-1.45,3.61-2.95,6.91-2.95,3.47,0,5.37,1.7,7.05,3.2s3.27,2.93,6.73,2.93,5-1.36,6.74-2.93,3.57-3.2,7.05-3.2c3.3,0,5.14,1.5,6.91,2.95a11.4,11.4,0,0,0,8.41,3.18Zm-58.21-12.26A14.43,14.43,0,0,0,210,334c1.61-1.31,2.77-2.26,5-2.26s3.5,1.07,5,2.42c1.85,1.65,4.14,3.71,8.77,3.71s6.93-2.06,8.78-3.71c1.51-1.35,2.7-2.42,5-2.42s3.37.95,5,2.26a14.44,14.44,0,0,0,10.35,3.87,1.53,1.53,0,0,0,0-3.06,11.4,11.4,0,0,1-8.41-3.18c-1.77-1.45-3.61-2.95-6.91-2.95-3.48,0-5.38,1.7-7.05,3.2s-3.28,2.93-6.74,2.93-5-1.36-6.73-2.93-3.58-3.2-7.05-3.2c-3.3,0-5.14,1.5-6.91,2.95a11.42,11.42,0,0,1-8.41,3.18,1.53,1.53,0,1,0,0,3.06Zm0-15.32A14.43,14.43,0,0,0,210,318.63c1.61-1.31,2.77-2.26,5-2.26s3.5,1.07,5,2.42c1.85,1.65,4.14,3.71,8.77,3.71s6.93-2.06,8.78-3.71c1.51-1.35,2.7-2.42,5-2.42s3.37.95,5,2.26a14.44,14.44,0,0,0,10.35,3.87,1.53,1.53,0,0,0,0-3.06,11.4,11.4,0,0,1-8.41-3.18c-1.77-1.45-3.61-2.95-6.91-2.95-3.48,0-5.38,1.7-7.05,3.2s-3.28,2.93-6.74,2.93-5-1.36-6.73-2.93-3.58-3.2-7.05-3.2c-3.3,0-5.14,1.5-6.91,2.95a11.42,11.42,0,0,1-8.41,3.18,1.53,1.53,0,1,0,0,3.06Z"/><path id="mountain" class="cls-1" d="M151.66,242.13,133,218.76l-11,12.86-16.31-29.81-21.5,40.67a2.22,2.22,0,0,0,.93,3,2.2,2.2,0,0,0,3-.92l17.65-33.39,12.92,23.63a2.7,2.7,0,0,0,.27.39l-3,3.49a2.21,2.21,0,1,0,3.36,2.88l13.58-15.84,15.35,19.18a2.21,2.21,0,1,0,3.46-2.76Z"/><path id="snow" class="cls-1" d="M245.77,105.29l10.56,4.44a1.67,1.67,0,0,0,.62.12,1.6,1.6,0,0,0,1.47-1,1.58,1.58,0,0,0-.86-2.08l-8.46-3.55,8.25-5.09a1.59,1.59,0,1,0-1.68-2.71l-7.87,4.85L249,91.83a1.59,1.59,0,1,0-3.15-.44l-1.56,11.08-13.5,8.32V95.35l9-6.91a1.6,1.6,0,0,0-1.93-2.54l-7.1,5.43V82.59a1.6,1.6,0,1,0-3.19,0v8.72l-7-5.4a1.59,1.59,0,1,0-2,2.52l8.91,6.91v15.45L213.23,102,211.7,91a1.6,1.6,0,0,0-3.16.44l1.17,8.35-7-4.34A1.59,1.59,0,0,0,201,98.15l7.52,4.64-8.57,3.6a1.6,1.6,0,0,0,.62,3.07,1.5,1.5,0,0,0,.62-.13l10.67-4.48,14.27,8.8-14.39,8.87-10.59-4.12a1.59,1.59,0,1,0-1.16,3l8.34,3.25L201,129.14a1.59,1.59,0,0,0,.83,3,1.6,1.6,0,0,0,.84-.24l6.75-4.16-1.14,8.18a1.58,1.58,0,0,0,1.35,1.8h.23a1.58,1.58,0,0,0,1.57-1.37L213,125.52l14.62-9V132l-8.71,7a1.59,1.59,0,1,0,2,2.48l6.71-5.42V144a1.6,1.6,0,0,0,3.19,0v-7.71l6.8,5.27a1.55,1.55,0,0,0,1,.34,1.57,1.57,0,0,0,1.26-.62,1.59,1.59,0,0,0-.28-2.24l-8.75-6.78V116.5l13.58,8.37L246,136.31a1.58,1.58,0,0,0,1.57,1.37h.23a1.58,1.58,0,0,0,1.35-1.8L247.88,127l7.8,4.81a1.59,1.59,0,1,0,1.67-2.71l-7.71-4.75,7.76-3a1.59,1.59,0,1,0-1.16-3l-10,3.89-14-8.65Z"/><path id="bike" class="cls-1" d="M361.64,219.44a16.49,16.49,0,0,0-6.73,1.51l-10.23-16.71,3.62-1.76a1.26,1.26,0,0,0-1.09-2.28l-4.71,2.44a1.23,1.23,0,0,0-.59,1.6.44.44,0,0,0,.16.34l3.59,5.94L330.6,213.8h-.09l-3.53-4h1.26a1.26,1.26,0,0,0,0-2.52h-7a1.26,1.26,0,0,0,0,2.52h2.44a.08.08,0,0,0,.08.08l4.46,5a3.51,3.51,0,0,0-.59.93l-3.11,4.79a14.86,14.86,0,0,0-6.14-1.26,15.23,15.23,0,1,0,15.23,15.23,6.81,6.81,0,0,0-.09-1.35l8.42-1.51a3.35,3.35,0,0,0,3-2.28l4-13.37,3.7,6.06a15.27,15.27,0,1,0,8.92-2.78Zm-30.45,15.23A12.75,12.75,0,1,1,318.4,222a13.18,13.18,0,0,1,4.8.93L318,231.05l-.08.17a3.09,3.09,0,0,0,.5,2.94,3.28,3.28,0,0,0,2.69,1.35h.09l10-1.77v.93ZM325.38,224a12.68,12.68,0,0,1,5.3,7.32L320.92,233a.85.85,0,0,1-.59-.33.83.83,0,0,1-.16-.59Zm1.35-2,3-4.79.16-.34,11.28,12.62-8,1.43a15.59,15.59,0,0,0-6.48-8.92Zm20.44-8L343,227.85,332.37,216l14.13-3.11a.89.89,0,0,1,.59.33,1.19,1.19,0,0,1,.08.76Zm14.47,33.48a12.76,12.76,0,0,1-7.57-23l6.65,10.86a1.21,1.21,0,0,0,1.09.58,2,2,0,0,0,.67-.16,1.23,1.23,0,0,0,.42-1.69l-6.64-10.77a12.73,12.73,0,1,1,5.38,24.23Z"/></g></g></svg>