<svg xmlns="http://www.w3.org/2000/svg" xmlns:xlink="http://www.w3.org/1999/xlink" viewBox="0 0 600 600"><defs><style>.cls-1{fill:#294c4b;}.cls-2{fill:#95c1bf;}.cls-3{fill:url(#Sfumatura_senza_nome_79);}.cls-4{fill:#386b6b;}</style><linearGradient id="Sfumatura_senza_nome_79" x1="300" y1="3.54" x2="300" y2="446.46" gradientUnits="userSpaceOnUse"><stop offset="0.03" stop-color="#95c1bf"/><stop offset="0.08" stop-color="#294c4b"/><stop offset="0.59" stop-color="#294c4b"/><stop offset="0.63" stop-color="#79bfbf"/><stop offset="0.68" stop-color="#73b6b6"/><stop offset="0.78" stop-color="#619d9c"/><stop offset="0.9" stop-color="#457473"/><stop offset="1" stop-color="#294c4b"/></linearGradient></defs><title>latitudeX-logo-block</title><g id="block"><path class="cls-1" d="M0,598.62v-76.5H6.65v70.54H43.7v6Z"/><path class="cls-1" d="M112.52,598.62,105,579.81H64.46l-7.57,18.81H49.32l31.31-76.5h8.15l31.31,76.5ZM84.76,529.11,66.64,573.85h36.13Z"/><path class="cls-1" d="M142.92,598.62V528.08h-25v-6h56.67v6h-25v70.54Z"/><path class="cls-1" d="M188.11,598.62v-76.5h6.54v76.5Z"/><path class="cls-1" d="M233.19,598.62V528.08h-25v-6h56.67v6h-25v70.54Z"/><path class="cls-1" d="M278.38,569.26V522.12H285v47c0,15.48,8.15,24.88,23.17,24.88s23.17-9.4,23.17-24.88v-47H338v47.14C338,588.19,327.93,600,308.2,600S278.38,588.07,278.38,569.26Z"/><path class="cls-1" d="M357.07,598.62v-76.5H381.5c23.74,0,38.65,17.32,38.65,38.31,0,21.22-14.91,38.19-38.65,38.19Zm56.2-38.19c0-17.9-11.47-32.35-31.77-32.35H363.6v64.58h17.9C401.68,592.66,413.27,578.32,413.27,560.43Z"/><path class="cls-1" d="M436.44,598.62v-76.5H485v6H443v28.33h41.17v6H443v30.28h42v6Z"/><path class="cls-1" d="M576.71,598.62l-16.63-25.69-16.63,25.69H520.17l26.61-39.23-24.89-37.27h23.28l14.91,24,14.8-24h23.4l-24.89,37.16L600,598.62Z"/><g id="base"><circle class="cls-2" cx="300" cy="225" r="217.03"/><path class="cls-1" d="M300,450A225,225,0,0,1,140.9,65.9,225,225,0,0,1,459.1,384.1,223.52,223.52,0,0,1,300,450Zm0-434.06A209,209,0,0,0,152.18,372.82,209,209,0,1,0,447.82,77.18,207.66,207.66,0,0,0,300,15.94Z"/><path id="grades" class="cls-1" d="M319.1,22.06l-2.22,25.43a1.35,1.35,0,0,1-1.33,1.22h-.11a1.32,1.32,0,0,1-1.21-1.44l2.23-25.43a1.33,1.33,0,1,1,2.64.23Zm16.55.9A1.33,1.33,0,0,0,334.11,24l-4.43,25.14a1.33,1.33,0,0,0,1.07,1.54l.24,0a1.32,1.32,0,0,0,1.3-1.1l4.44-25.14A1.32,1.32,0,0,0,335.65,23Zm17.49,3.88a1.33,1.33,0,0,0-1.63.94L344.9,52.44a1.33,1.33,0,0,0,.94,1.63,1.32,1.32,0,0,0,.34,0,1.34,1.34,0,0,0,1.29-1l6.61-24.66A1.33,1.33,0,0,0,353.14,26.84Zm17.08,5.39a1.32,1.32,0,0,0-1.7.79l-8.74,24a1.34,1.34,0,0,0,.79,1.71,1.48,1.48,0,0,0,.46.08,1.34,1.34,0,0,0,1.25-.88l8.74-24A1.33,1.33,0,0,0,370.22,32.23Zm16.55,6.86a1.34,1.34,0,0,0-1.77.64L374.21,62.87a1.31,1.31,0,0,0,.64,1.76,1.24,1.24,0,0,0,.56.13,1.32,1.32,0,0,0,1.2-.77l10.8-23.14A1.32,1.32,0,0,0,386.77,39.09Zm1.78,32.68a1.34,1.34,0,0,0,.66.18,1.35,1.35,0,0,0,1.16-.66l12.77-22.11a1.33,1.33,0,0,0-2.3-1.33L388.06,70A1.33,1.33,0,0,0,388.55,71.77Zm13,8.31a1.33,1.33,0,0,0,1.85-.32l14.65-20.91a1.33,1.33,0,0,0-2.17-1.53L401.25,78.23A1.33,1.33,0,0,0,401.58,80.08Zm12.25,9.41a1.33,1.33,0,0,0,1.87-.16l16.43-19.55a1.33,1.33,0,0,0-2-1.71L413.67,87.62A1.33,1.33,0,0,0,413.83,89.49Zm21.82,21.85a1.33,1.33,0,0,0,1,.47,1.31,1.31,0,0,0,.85-.31l19.57-16.4a1.33,1.33,0,1,0-1.71-2l-19.57,16.4A1.33,1.33,0,0,0,435.65,111.34Zm9.4,12.26a1.32,1.32,0,0,0,1.09.57,1.36,1.36,0,0,0,.76-.24l20.92-14.63a1.33,1.33,0,1,0-1.52-2.18l-20.93,14.63A1.33,1.33,0,0,0,445.05,123.6Zm8.29,13a1.31,1.31,0,0,0,1.81.49l22.12-12.75a1.33,1.33,0,0,0-1.32-2.3l-22.12,12.75A1.32,1.32,0,0,0,453.34,136.64Zm7.12,13.71a1.32,1.32,0,0,0,1.21.77,1.37,1.37,0,0,0,.55-.12l23.16-10.77a1.33,1.33,0,0,0-1.13-2.41L461.1,148.59A1.33,1.33,0,0,0,460.46,150.35Zm5.9,14.28a1.34,1.34,0,0,0,1.25.88,1.42,1.42,0,0,0,.45-.08l24-8.71a1.33,1.33,0,0,0-.9-2.5l-24,8.71A1.33,1.33,0,0,0,466.36,164.63ZM471,179.37a1.33,1.33,0,0,0,1.28,1,1.39,1.39,0,0,0,.35,0l24.67-6.59a1.33,1.33,0,0,0-.69-2.57l-24.67,6.59A1.32,1.32,0,0,0,471,179.37Zm3.33,15.09a1.32,1.32,0,0,0,1.31,1.1.93.93,0,0,0,.23,0l25.15-4.4a1.33,1.33,0,1,0-.46-2.62l-25.15,4.4A1.33,1.33,0,0,0,474.32,194.46Zm2,15.32a1.33,1.33,0,0,0,1.32,1.22h.12l25.43-2.19a1.33,1.33,0,0,0-.22-2.65l-25.44,2.2A1.32,1.32,0,0,0,476.32,209.78Zm26.83,31.93-25.43-2.26a1.34,1.34,0,0,0-1.44,1.21,1.32,1.32,0,0,0,1.21,1.44l25.43,2.26H503a1.33,1.33,0,0,0,.11-2.65Zm-2.23,17.66-25.14-4.47a1.33,1.33,0,1,0-.46,2.61L500.46,262a.9.9,0,0,0,.23,0,1.32,1.32,0,0,0,.23-2.63Zm-3.76,17.39-24.65-6.64a1.33,1.33,0,0,0-.7,2.56l24.66,6.65a1.33,1.33,0,0,0,.69-2.57Zm-5.27,17-24-8.77a1.32,1.32,0,0,0-1.7.79,1.34,1.34,0,0,0,.79,1.71l24,8.77a1.44,1.44,0,0,0,.46.08,1.33,1.33,0,0,0,.45-2.58Zm-6.73,16.48L462,299.41a1.33,1.33,0,0,0-1.13,2.41L484,312.64a1.24,1.24,0,0,0,.56.13,1.33,1.33,0,0,0,.56-2.53ZM477,326.06l-22.09-12.8a1.33,1.33,0,0,0-1.33,2.3l22.09,12.8a1.33,1.33,0,1,0,1.33-2.3Zm-9.49,15.06-20.89-14.68a1.33,1.33,0,0,0-1.53,2.17L466,343.29a1.37,1.37,0,0,0,.77.24,1.32,1.32,0,0,0,.76-2.41Zm-30.29-2.28a1.33,1.33,0,1,0-1.72,2l19.53,16.45a1.33,1.33,0,1,0,1.72-2ZM415.36,361a1.33,1.33,0,0,0-2,1.7l16.38,19.59a1.32,1.32,0,0,0,1.87.17,1.33,1.33,0,0,0,.17-1.87Zm-12.29,9.54a1.33,1.33,0,1,0-2.18,1.52l14.6,21a1.33,1.33,0,0,0,2.18-1.52ZM390,378.94a1.33,1.33,0,0,0-2.3,1.32L400.4,402.4a1.33,1.33,0,1,0,2.3-1.32Zm-13.77,7.26a1.33,1.33,0,1,0-2.41,1.12l10.74,23.16a1.33,1.33,0,0,0,1.21.77,1.45,1.45,0,0,0,.56-.12,1.34,1.34,0,0,0,.64-1.77Zm-14.35,6a1.33,1.33,0,0,0-2.5.91l8.68,24a1.34,1.34,0,0,0,1.25.88,1.42,1.42,0,0,0,.45-.08,1.33,1.33,0,0,0,.8-1.7ZM347,397a1.33,1.33,0,0,0-2.57.68L351,422.35a1.33,1.33,0,0,0,1.28,1,1.39,1.39,0,0,0,.35,0,1.33,1.33,0,0,0,.94-1.63Zm-15.18,3.45a1.33,1.33,0,1,0-2.62.46l4.37,25.15a1.34,1.34,0,0,0,1.31,1.1.9.9,0,0,0,.23,0,1.32,1.32,0,0,0,1.08-1.53Zm-16.86.9a1.32,1.32,0,0,0-1.21,1.43L316,428.22a1.33,1.33,0,0,0,1.32,1.21h.11A1.33,1.33,0,0,0,318.6,428l-2.17-25.44A1.33,1.33,0,0,0,315,401.34Zm-30.88-.08a1.33,1.33,0,0,0-1.44,1.21l-2.29,25.42a1.33,1.33,0,0,0,1.2,1.45h.12a1.34,1.34,0,0,0,1.33-1.21l2.29-25.43A1.34,1.34,0,0,0,284.12,401.26Zm-15.31-2.06a1.34,1.34,0,0,0-1.54,1.08l-4.5,25.13a1.33,1.33,0,0,0,1.07,1.54,1,1,0,0,0,.24,0,1.32,1.32,0,0,0,1.3-1.09l4.5-25.13A1.33,1.33,0,0,0,268.81,399.2Zm-15.08-3.38a1.34,1.34,0,0,0-1.63.93l-6.67,24.65a1.32,1.32,0,0,0,.93,1.63,1.48,1.48,0,0,0,.35.05,1.32,1.32,0,0,0,1.28-1l6.68-24.65A1.33,1.33,0,0,0,253.73,395.82ZM239,391.13a1.34,1.34,0,0,0-1.71.79l-8.79,24a1.33,1.33,0,0,0,.78,1.71,1.54,1.54,0,0,0,.46.08,1.33,1.33,0,0,0,1.25-.87l8.8-24A1.34,1.34,0,0,0,239,391.13Zm-14.26-5.95a1.33,1.33,0,0,0-1.77.64l-10.85,23.11a1.34,1.34,0,0,0,.63,1.77,1.46,1.46,0,0,0,.57.12,1.32,1.32,0,0,0,1.2-.76L225.39,387A1.33,1.33,0,0,0,224.75,385.18ZM211.07,378a1.33,1.33,0,0,0-1.82.48l-12.83,22.07a1.33,1.33,0,0,0,1.15,2,1.35,1.35,0,0,0,1.15-.66l12.83-22.08A1.32,1.32,0,0,0,211.07,378Zm-13-8.34a1.32,1.32,0,0,0-1.85.32L181.5,390.86a1.33,1.33,0,0,0,.32,1.85,1.35,1.35,0,0,0,.77.24,1.31,1.31,0,0,0,1.08-.56l14.71-20.87A1.33,1.33,0,0,0,198.06,369.67Zm-12.23-9.45a1.33,1.33,0,0,0-1.87.16l-16.47,19.51a1.32,1.32,0,0,0,.15,1.87,1.35,1.35,0,0,0,.86.32,1.32,1.32,0,0,0,1-.48L186,362.1A1.34,1.34,0,0,0,185.83,360.22Zm-21.76-21.9a1.34,1.34,0,0,0-1.87-.17L142.58,354.5a1.34,1.34,0,0,0-.17,1.88,1.36,1.36,0,0,0,1.88.17L163.9,340.2A1.34,1.34,0,0,0,164.07,338.32ZM154.7,326a1.32,1.32,0,0,0-1.85-.34l-21,14.58a1.33,1.33,0,0,0-.33,1.85,1.32,1.32,0,0,0,1.09.57,1.36,1.36,0,0,0,.76-.24l21-14.57A1.33,1.33,0,0,0,154.7,326ZM146.44,313a1.33,1.33,0,0,0-1.81-.5l-22.16,12.7a1.33,1.33,0,0,0,.67,2.48,1.28,1.28,0,0,0,.65-.18L146,314.79A1.32,1.32,0,0,0,146.44,313Zm-7.09-13.73a1.32,1.32,0,0,0-1.76-.65l-23.18,10.71a1.33,1.33,0,0,0,.56,2.54,1.24,1.24,0,0,0,.56-.13L138.7,301A1.32,1.32,0,0,0,139.35,299.25ZM133.49,285a1.33,1.33,0,0,0-1.7-.8l-24,8.65a1.33,1.33,0,0,0,.45,2.58,1.19,1.19,0,0,0,.45-.08l24-8.65A1.33,1.33,0,0,0,133.49,285Zm-4.6-14.75a1.32,1.32,0,0,0-1.62-.95l-24.69,6.53a1.33,1.33,0,0,0,.34,2.61,1.27,1.27,0,0,0,.34-.05L128,271.82A1.32,1.32,0,0,0,128.89,270.2Zm-3.29-15.1a1.33,1.33,0,0,0-1.53-1.08l-25.16,4.34a1.33,1.33,0,0,0,.22,2.64l.23,0,25.16-4.34A1.33,1.33,0,0,0,125.6,255.1Zm-2-15.32a1.33,1.33,0,0,0-1.43-1.22L96.76,240.7a1.33,1.33,0,0,0,.11,2.65H97l25.44-2.13A1.32,1.32,0,0,0,123.64,239.78Zm-26.75-32,25.42,2.33h.13a1.33,1.33,0,0,0,.12-2.65l-25.43-2.32a1.33,1.33,0,0,0-.24,2.64Zm2.27-17.65,25.13,4.53a1,1,0,0,0,.24,0,1.33,1.33,0,0,0,.23-2.64l-25.12-4.53a1.33,1.33,0,1,0-.48,2.61ZM103,172.75l24.64,6.7a1,1,0,0,0,.35.05,1.33,1.33,0,0,0,.34-2.61l-24.63-6.71a1.33,1.33,0,0,0-.7,2.57Zm5.31-17,24,8.83a1.21,1.21,0,0,0,.46.08,1.33,1.33,0,0,0,.46-2.57l-24-8.83a1.33,1.33,0,1,0-.92,2.49Zm6.77-16.46,23.1,10.89a1.39,1.39,0,0,0,.56.13,1.34,1.34,0,0,0,.57-2.54l-23.1-10.88a1.33,1.33,0,1,0-1.13,2.4Zm8.18-15.8,22.06,12.86a1.35,1.35,0,0,0,.67.18,1.33,1.33,0,0,0,.67-2.48L124.57,121.2a1.33,1.33,0,0,0-1.34,2.3Zm9.53-15,20.85,14.74a1.34,1.34,0,0,0,.76.24,1.33,1.33,0,0,0,.77-2.41l-20.85-14.74a1.33,1.33,0,0,0-1.53,2.17Zm30.29,2.36a1.31,1.31,0,0,0,.85.31,1.33,1.33,0,0,0,.86-2.34l-19.48-16.5a1.33,1.33,0,1,0-1.72,2ZM185,88.75a1.34,1.34,0,0,0,1,.48,1.36,1.36,0,0,0,.85-.3,1.33,1.33,0,0,0,.17-1.87L170.69,67.42a1.33,1.33,0,1,0-2,1.7Zm12.33-9.51a1.32,1.32,0,0,0,1.09.57,1.35,1.35,0,0,0,.76-.23,1.33,1.33,0,0,0,.33-1.85l-14.55-21a1.33,1.33,0,1,0-2.18,1.51Zm13.1-8.4a1.34,1.34,0,0,0,1.16.67,1.28,1.28,0,0,0,.65-.18,1.33,1.33,0,0,0,.5-1.81L200,47.35a1.33,1.33,0,0,0-2.3,1.32Zm5.52-31.53a1.33,1.33,0,0,0-2.41,1.11l10.68,23.19a1.32,1.32,0,0,0,1.21.77,1.37,1.37,0,0,0,.55-.12,1.32,1.32,0,0,0,.65-1.76Zm16.52-6.63a1.33,1.33,0,1,0-2.5.9l8.62,24a1.31,1.31,0,0,0,1.25.88,1.41,1.41,0,0,0,.45-.07,1.33,1.33,0,0,0,.8-1.7Zm17-5.16a1.33,1.33,0,0,0-2.57.68l6.49,24.69a1.33,1.33,0,0,0,1.29,1,1.24,1.24,0,0,0,.33,0,1.33,1.33,0,0,0,1-1.62Zm17.42-3.65a1.33,1.33,0,1,0-2.62.45l4.31,25.16a1.33,1.33,0,0,0,1.31,1.11l.22,0A1.34,1.34,0,0,0,271.2,49Zm16.23-3.34A1.32,1.32,0,0,0,281.91,22L284,47.41a1.33,1.33,0,0,0,1.32,1.22h.11a1.34,1.34,0,0,0,1.22-1.44l-2.1-25.44A1.33,1.33,0,0,0,283.12,20.53ZM300,6.18a2.23,2.23,0,0,0-2.22,2.22V59.46a2.22,2.22,0,1,0,4.43,0V8.4A2.22,2.22,0,0,0,300,6.18Zm118.57,100.4a2.21,2.21,0,0,0,3.13,0l30.11-30.07a2.21,2.21,0,1,0-3.13-3.13l-30.11,30.07A2.21,2.21,0,0,0,418.57,106.58Zm98,116.48L465.54,223h0a2.22,2.22,0,0,0,0,4.43l51.07.06h0a2.21,2.21,0,1,0,0-4.42Zm-217,165.26h0a2.22,2.22,0,0,0-2.22,2.21l-.13,51.07a2.23,2.23,0,0,0,2.21,2.22h0a2.21,2.21,0,0,0,2.21-2.21l.13-51.07A2.23,2.23,0,0,0,299.59,388.32ZM181.14,343.13a2.22,2.22,0,0,0-3.14,0l-30.18,30a2.21,2.21,0,0,0,0,3.13,2.19,2.19,0,0,0,1.57.66,2.21,2.21,0,0,0,1.56-.65l30.19-30A2.22,2.22,0,0,0,181.14,343.13ZM134.46,226.59a2.21,2.21,0,1,0,0-4.42L83.41,222h0a2.22,2.22,0,1,0,0,4.43l51.07.19ZM178.89,106a2.22,2.22,0,0,0,1.57.65A2.19,2.19,0,0,0,182,106a2.21,2.21,0,0,0,0-3.13l-30-30.23a2.22,2.22,0,0,0-3.15,3.12ZM421.4,343.72a2.21,2.21,0,0,0-3.13,3.13l30,30.15a2.22,2.22,0,0,0,1.57.65,2.22,2.22,0,0,0,1.57-3.78Z"/><path class="cls-3" d="M300,446.46a221.45,221.45,0,0,1-156.59-378A221.45,221.45,0,1,1,456.59,381.59,220,220,0,0,1,300,446.46ZM300,12.4A212.6,212.6,0,0,0,149.67,375.33,212.6,212.6,0,1,0,450.33,74.67,211.21,211.21,0,0,0,300,12.4Z"/></g><g id="X"><path class="cls-4" d="M318.79,225,406,137.84a13.29,13.29,0,1,0-18.79-18.79L300,206.21l-87.16-87.16a13.29,13.29,0,1,0-18.79,18.79L281.21,225l-87.16,87.16A13.29,13.29,0,0,0,212.84,331L300,243.79,387.16,331A13.29,13.29,0,0,0,406,312.16Z"/><path class="cls-1" d="M406,331a13.28,13.28,0,0,0,0-18.79L318.79,225H300Z"/><path class="cls-1" d="M194.05,331a13.28,13.28,0,0,0,18.79,0L300,243.79V225Z"/><path class="cls-1" d="M406,119.05a13.28,13.28,0,0,0-18.79,0L300,206.21V225Z"/><path class="cls-1" d="M194.05,119.05a13.28,13.28,0,0,0,0,18.79L281.21,225H300Z"/></g><g id="pointer"><path class="cls-4" d="M483.76,83.7,489,36l-46.83,5.39A234.45,234.45,0,0,1,464,61,237.54,237.54,0,0,1,483.76,83.7Z"/><path class="cls-1" d="M489,36l-46.83,5.39C449.86,47.45,464,61,464,61Z"/></g><g id="symbols"><path id="sea" class="cls-1" d="M329.11,350.08a1.53,1.53,0,0,1,0,3.06,14.44,14.44,0,0,1-10.35-3.87c-1.6-1.31-2.76-2.26-5-2.26s-3.5,1.07-5,2.42c-1.85,1.65-4.15,3.71-8.78,3.71s-6.93-2.06-8.78-3.71c-1.51-1.35-2.7-2.42-5-2.42s-3.37.95-5,2.26a14.44,14.44,0,0,1-10.35,3.87,1.53,1.53,0,0,1,0-3.06,11.38,11.38,0,0,0,8.41-3.18c1.78-1.45,3.61-2.95,6.91-2.95,3.48,0,5.38,1.7,7.06,3.2s3.27,2.93,6.73,2.93,5-1.36,6.73-2.93,3.58-3.2,7.06-3.2c3.3,0,5.13,1.5,6.91,2.95a11.38,11.38,0,0,0,8.41,3.18Zm-58.22-12.26A14.44,14.44,0,0,0,281.24,334c1.6-1.31,2.76-2.26,5-2.26s3.5,1.07,5,2.42c1.85,1.65,4.15,3.71,8.78,3.71s6.93-2.06,8.78-3.71c1.51-1.35,2.7-2.42,5-2.42s3.37.95,5,2.26a14.44,14.44,0,0,0,10.35,3.87,1.53,1.53,0,0,0,0-3.06,11.38,11.38,0,0,1-8.41-3.18c-1.78-1.45-3.61-2.95-6.91-2.95-3.48,0-5.38,1.7-7.06,3.2s-3.27,2.93-6.73,2.93-5-1.36-6.73-2.93-3.58-3.2-7.06-3.2c-3.3,0-5.13,1.5-6.91,2.95a11.38,11.38,0,0,1-8.41,3.18,1.53,1.53,0,0,0,0,3.06Zm0-15.32a14.44,14.44,0,0,0,10.35-3.87c1.6-1.31,2.76-2.26,5-2.26s3.5,1.07,5,2.42c1.85,1.65,4.15,3.71,8.78,3.71s6.93-2.06,8.78-3.71c1.51-1.35,2.7-2.42,5-2.42s3.37.95,5,2.26a14.44,14.44,0,0,0,10.35,3.87,1.53,1.53,0,0,0,0-3.06,11.38,11.38,0,0,1-8.41-3.18c-1.78-1.45-3.61-2.95-6.91-2.95-3.48,0-5.38,1.7-7.06,3.2s-3.27,2.93-6.73,2.93-5-1.36-6.73-2.93-3.58-3.2-7.06-3.2c-3.3,0-5.13,1.5-6.91,2.95a11.38,11.38,0,0,1-8.41,3.18,1.53,1.53,0,1,0,0,3.06Z"/><path id="mountain" class="cls-1" d="M222.9,242.13l-18.69-23.37-11,12.86-16.3-29.81-21.5,40.67a2.21,2.21,0,0,0,.92,3,2.29,2.29,0,0,0,1,.26,2.23,2.23,0,0,0,2-1.18L177,211.16l12.91,23.63a2.76,2.76,0,0,0,.28.39l-3,3.49a2.21,2.21,0,0,0,3.36,2.88l13.58-15.84,15.35,19.18a2.21,2.21,0,0,0,1.73.84,2.18,2.18,0,0,0,1.38-.49A2.21,2.21,0,0,0,222.9,242.13Z"/><path id="snow" class="cls-1" d="M317,105.29l10.57,4.44a1.66,1.66,0,0,0,.61.12,1.59,1.59,0,0,0,.62-3.06l-8.46-3.55,8.24-5.09a1.59,1.59,0,0,0-1.67-2.71L319,100.29l1.19-8.46a1.59,1.59,0,0,0-1.36-1.8,1.61,1.61,0,0,0-1.8,1.36l-1.55,11.08L302,110.79V95.35l9-6.91a1.6,1.6,0,0,0-1.94-2.54L302,91.33V82.59a1.59,1.59,0,1,0-3.18,0v8.72l-7-5.4a1.59,1.59,0,1,0-1.95,2.52l8.91,6.91v15.45L284.47,102l-1.53-11a1.6,1.6,0,0,0-3.16.44L281,99.78l-7-4.34a1.59,1.59,0,1,0-1.68,2.71l7.53,4.64-8.57,3.6a1.6,1.6,0,0,0,.62,3.07,1.49,1.49,0,0,0,.61-.13l10.68-4.48,14.27,8.8L283,122.52l-10.59-4.12a1.59,1.59,0,1,0-1.15,3l8.34,3.25-7.34,4.52a1.59,1.59,0,1,0,1.68,2.71l6.75-4.16-1.15,8.18a1.6,1.6,0,0,0,1.36,1.8h.22a1.59,1.59,0,0,0,1.58-1.37l1.51-10.79,14.63-9V132l-8.72,7a1.6,1.6,0,0,0,2,2.48l6.71-5.42V144a1.6,1.6,0,0,0,3.19,0v-7.71l6.79,5.27a1.58,1.58,0,0,0,1,.34,1.6,1.6,0,0,0,1-2.86L302,132.28V116.5l13.58,8.37,1.6,11.44a1.6,1.6,0,0,0,1.58,1.37H319a1.59,1.59,0,0,0,1.36-1.8L319.11,127l7.8,4.81a1.59,1.59,0,1,0,1.68-2.71l-7.71-4.75,7.75-3a1.59,1.59,0,0,0-1.15-3l-10,3.89-14-8.65Z"/><path id="bike" class="cls-1" d="M432.88,219.44a16.49,16.49,0,0,0-6.73,1.51l-10.23-16.71,3.62-1.76a1.27,1.27,0,0,0-1.1-2.28l-4.71,2.44a1.24,1.24,0,0,0-.59,1.6.45.45,0,0,0,.17.34l3.58,5.94-15.05,3.28h-.09l-3.53-4h1.26a1.26,1.26,0,0,0,0-2.52h-7a1.26,1.26,0,0,0,0,2.52h2.44a.08.08,0,0,0,.08.08l4.46,5a3.51,3.51,0,0,0-.59.93l-3.11,4.79a14.89,14.89,0,0,0-6.14-1.26,15.23,15.23,0,1,0,15.22,15.23,7.65,7.65,0,0,0-.08-1.35l8.41-1.51a3.35,3.35,0,0,0,3-2.28l4-13.37,3.7,6.06a15.27,15.27,0,1,0,8.92-2.78Zm-30.46,15.23A12.75,12.75,0,1,1,389.64,222a13.09,13.09,0,0,1,4.79.93l-5.21,8.16-.09.17a3.09,3.09,0,0,0,.51,2.94,3.28,3.28,0,0,0,2.69,1.35h.08l10-1.77v.93ZM396.62,224a12.68,12.68,0,0,1,5.3,7.32L392.16,233a.85.85,0,0,1-.59-.33.8.8,0,0,1-.17-.59Zm1.35-2,3-4.79.17-.34,11.27,12.62-8,1.43A15.57,15.57,0,0,0,398,222Zm20.44-8-4.21,13.88L403.6,216l14.14-3.11a.89.89,0,0,1,.59.33,1.26,1.26,0,0,1,.08.76Zm14.47,33.48a12.76,12.76,0,0,1-7.57-23L432,235.26a1.24,1.24,0,0,0,1.1.58,2,2,0,0,0,.67-.16,1.23,1.23,0,0,0,.42-1.69l-6.65-10.77a12.73,12.73,0,1,1,5.39,24.23Z"/></g></g></svg>