<svg width="248" height="94" viewBox="0 0 248 94" fill="none" xmlns="http://www.w3.org/2000/svg">
<g clip-path="url(#clip0_335_1041)">
<path d="M93.3971 46.2652L113.032 26.4287C107.861 21.3093 100.896 18.4119 93.6197 18.3542C86.3437 18.2964 79.3329 21.0828 74.0817 26.1194L93.3971 46.2652Z" fill="#F3954A"/>
<path d="M107.094 54.5461L154.665 6.97869L241.146 93.4559H247.776L154.665 0.345215L100.521 54.4855L133.548 88.7658H120.765L93.693 60.07L64.9905 88.7658H53.6635L87.732 54.7041L63.5078 30.4799L0.53186 93.4559H7.16533L63.5078 37.1134L81.0985 54.7041L42.3433 93.4559H66.9339L93.5921 66.7976L118.737 93.4559H144.579L107.094 54.5461Z" fill="#4E9C94"/>
</g>
<defs>
<clipPath id="clip0_335_1041">
<rect width="247.452" height="93.4671" fill="white" transform="translate(0.471069 0.28833)"/>
</clipPath>
</defs>
</svg>
