<svg width="568" height="84" viewBox="0 0 568 84" fill="none" xmlns="http://www.w3.org/2000/svg">
<g clip-path="url(#clip0_335_1039)">
<path d="M430.482 41.1857L447.921 23.5614C443.328 19.0174 437.142 16.4458 430.681 16.3943C424.219 16.3429 417.993 18.8155 413.328 23.2857L430.482 41.1857Z" fill="#F3954A"/>
<path d="M442.296 48.5423L484.545 6.29382L561.349 83.1016H567.239L484.545 0.406738L436.459 48.4885L465.791 78.9359H454.437L430.391 53.4476L404.903 78.9359H394.843L425.099 48.6801L403.585 27.1693L347.656 83.1016H353.546L403.585 33.0597L419.208 48.6801L384.787 83.1016H406.627L430.307 59.4255L452.638 83.1016H475.588L442.296 48.5423Z" fill="white"/>
<path d="M5.74422 24.8391H0.317749V83.0947H32.7824V77.6716H5.74422V24.8391Z" fill="white"/>
<path d="M89.0442 29.5527H107.738V83.2493H113.161V29.5527H131.851V24.1296H89.0442V29.5527Z" fill="white"/>
<path d="M146.58 23.1782H141.157V83.2493H146.58V23.1782Z" fill="white"/>
<path d="M156.509 29.5527H175.199V83.2493H180.622V29.5527H199.315V24.1296H156.509V29.5527Z" fill="white"/>
<path d="M249.532 58.7696C249.532 69.1922 241.238 77.6714 231.04 77.6714C220.843 77.6714 212.549 69.1922 212.549 58.7696V23.7295H207.142V58.7696C207.142 72.1845 217.864 83.0946 231.047 83.0946C244.23 83.0946 254.955 72.1845 254.955 58.7696V23.7295H249.532V58.7696Z" fill="white"/>
<path d="M353.173 29.5528V24.1296H318.321V83.0946H353.173V77.6715H323.744V56.8398H349.703V51.4167H323.744V29.5528H353.173Z" fill="white"/>
<path d="M275.609 24.1265H265.186V83.0948H275.609C283.374 83.0119 290.793 79.869 296.254 74.3487C301.716 68.8283 304.78 61.3762 304.78 53.6106C304.78 45.845 301.716 38.393 296.254 32.8726C290.793 27.3523 283.374 24.2094 275.609 24.1265ZM275.609 77.6717H270.602V29.5529H275.609C278.768 29.5529 281.897 30.1753 284.816 31.3843C287.735 32.5934 290.387 34.3656 292.621 36.5998C294.855 38.8339 296.627 41.4862 297.837 44.4052C299.046 47.3242 299.668 50.4528 299.668 53.6123C299.668 56.7718 299.046 59.9004 297.837 62.8194C296.627 65.7385 294.855 68.3907 292.621 70.6249C290.387 72.859 287.735 74.6312 284.816 75.8403C281.897 77.0494 278.768 77.6717 275.609 77.6717Z" fill="white"/>
<path d="M43.3933 83.0946L66.908 33.046L92.013 83.0946H98.0783L66.75 20.6331L37.402 83.0946H43.3933Z" fill="white"/>
</g>
<defs>
<clipPath id="clip0_335_1039">
<rect width="567.191" height="83.3807" fill="white" transform="translate(0.250488 0.161377)"/>
</clipPath>
</defs>
</svg>
