<?xml version="1.0" standalone="no"?>
<!DOCTYPE svg PUBLIC "-//W3C//DTD SVG 20010904//EN"
 "http://www.w3.org/TR/2001/REC-SVG-20010904/DTD/svg10.dtd">
<svg version="1.0" xmlns="http://www.w3.org/2000/svg"
 width="700.000000pt" height="700.000000pt" viewBox="0 0 700.000000 700.000000"
 preserveAspectRatio="xMidYMid meet">
<metadata>
Created by potrace 1.14, written by Peter Selinger 2001-2017
</metadata>
<g transform="translate(0.000000,700.000000) scale(0.100000,-0.100000)"
fill="#000000" stroke="none">
<path d="M3117 6989 c-27 -4 -70 -10 -95 -14 -26 -3 -72 -10 -102 -15 -30 -5
-68 -12 -85 -15 -78 -13 -290 -70 -418 -111 -221 -72 -480 -188 -655 -292 -29
-18 -54 -32 -56 -32 -15 0 -335 -225 -404 -284 -383 -328 -620 -607 -834 -981
-177 -310 -324 -683 -382 -975 -3 -14 -7 -36 -10 -50 -3 -14 -10 -50 -16 -80
-6 -30 -12 -64 -14 -75 -2 -12 -7 -48 -11 -80 -4 -33 -9 -69 -11 -80 -19 -102
-25 -527 -11 -709 5 -55 10 -102 11 -105 2 -3 6 -33 10 -66 3 -33 8 -71 11
-85 3 -14 7 -39 9 -55 18 -130 142 -568 190 -670 8 -16 23 -52 34 -80 60 -153
195 -402 317 -585 297 -446 726 -842 1190 -1100 387 -216 848 -370 1240 -416
22 -2 49 -6 60 -9 88 -19 550 -27 715 -12 207 19 355 43 539 88 808 198 1539
697 2020 1379 45 63 86 120 91 127 6 7 10 15 10 18 0 4 15 30 34 58 19 29 44
70 56 92 11 22 37 69 57 105 135 245 289 681 338 955 20 110 27 155 31 189 3
23 8 52 11 66 3 14 7 192 9 395 2 316 -1 388 -16 494 -118 792 -456 1471
-1008 2019 -87 86 -265 242 -327 287 -16 11 -33 25 -39 31 -26 25 -311 207
-406 260 -298 164 -613 281 -963 359 -233 52 -368 63 -737 62 -184 0 -357 -4
-383 -8z"/>
<path d="M6379 6436 c-2 -2 -31 -6 -64 -9 -102 -10 -590 -67 -599 -70 -4 -2 9
-16 30 -32 162 -123 464 -427 577 -582 16 -24 32 -42 33 -40 2 1 6 27 9 57 3
30 8 71 10 90 2 19 7 58 10 85 2 28 7 68 9 90 3 22 8 67 11 100 6 60 10 90 20
175 3 25 7 66 9 93 4 46 3 47 -23 47 -15 0 -30 -2 -32 -4z"/>
</g>
</svg>
