<svg xmlns="http://www.w3.org/2000/svg" width="0" height="0" class="hidden">
  <defs>
    <symbol id="copy" viewBox="0 0 24 24" fill="currentColor">
      <path d="M7 11h10v2H7z" />
      <path
        fill-rule="evenodd"
        d="M10 7H6a5 5 0 0 0 0 10h4v-2H6a3 3 0 1 1 0-6h4V7Zm4 8h4a3 3 0 1 0 0-6h-4V7h4a5 5 0 0 1 0 10h-4v-2Z"
        clip-rule="evenodd"
      />
    </symbol>
    <symbol id="link" viewBox="0 0 24 24" fill="currentColor">
      <path d="M7 11h10v2H7z" />
      <path
        fill-rule="evenodd"
        d="M10 7H6a5 5 0 0 0 0 10h4v-2H6a3 3 0 1 1 0-6h4V7Zm4 8h4a3 3 0 1 0 0-6h-4V7h4a5 5 0 0 1 0 10h-4v-2Z"
        clip-rule="evenodd"
      />
    </symbol>
    <symbol id="facebook" viewBox="0 0 24 24" fill="currentColor">
      <path
        d="M22 12c0-5.523-4.477-10-10-10S2 6.477 2 12c0 4.991 3.657 9.128 8.438 9.878v-6.987h-2.54V12h2.54V9.797c0-2.506 1.492-3.89 3.777-3.89 1.094 0 2.238.195 2.238.195v2.46h-1.26c-1.243 0-1.63.771-1.63 1.562V12h2.773l-.443 2.89h-2.33v6.988C18.343 21.128 22 16.991 22 12"
      />
    </symbol>
    <symbol id="linkedin" viewBox="0 0 24 24" fill="currentColor">
      <path
        d="M18.337 18.336H15.67v-4.177c0-.996-.018-2.278-1.387-2.278-1.39 0-1.602 1.085-1.602 2.206v4.249h-2.667v-8.59h2.56v1.174h.036a2.81 2.81 0 0 1 2.527-1.387c2.703 0 3.201 1.778 3.201 4.091v4.712ZM7.005 8.572c-.85 0-1.548-.698-1.548-1.547 0-.85.698-1.548 1.547-1.548.85 0 1.548.698 1.548 1.547 0 .85-.698 1.548-1.547 1.548Zm1.333 9.764h-2.67v-8.59h2.67v8.59ZM19.667 3H4.328A1.32 1.32 0 0 0 3 4.297V19.7a1.32 1.32 0 0 0 1.328 1.299h15.339a1.323 1.323 0 0 0 1.333-1.3V4.297A1.321 1.321 0 0 0 19.667 3Z"
      />
    </symbol>
    <symbol id="twitter" viewBox="0 0 24 24" fill="currentColor">
      <path
        d="M22 5.8a8.49 8.49 0 0 1-2.36.64 4.13 4.13 0 0 0 1.81-2.27 8.21 8.21 0 0 1-2.61 1 4.1 4.1 0 0 0-7 3.74 11.64 11.64 0 0 1-8.45-4.29 4.16 4.16 0 0 0-.55 2.07 4.09 4.09 0 0 0 1.82 3.41 4.05 4.05 0 0 1-1.86-.51v.05a4.1 4.1 0 0 0 3.3 4 3.933 3.933 0 0 1-1.1.17 4.907 4.907 0 0 1-.77-.07 4.11 4.11 0 0 0 3.83 2.84A8.22 8.22 0 0 1 2 18.28a11.57 11.57 0 0 0 6.29 1.85A11.589 11.589 0 0 0 20 8.45v-.53a8.43 8.43 0 0 0 2-2.12Z"
      />
    </symbol>
    <symbol id="back" viewBox="0 0 27 12" fill="currentColor">
      <path
        fill="currentColor"
        d="M25.6 6.5a.5.5 0 0 0 0-1v1Zm-25-1a.5.5 0 1 0 0 1v-1Zm5.26 6.166a.5.5 0 1 0 .68-.732l-.68.732ZM.5 6l-.36-.347a.5.5 0 0 0 .02.713L.5 6ZM6.16.847a.5.5 0 0 0-.72-.694l.72.694ZM25.6 5.5H.6v1h25v-1ZM6.54 10.934l-5.7-5.3-.68.732 5.7 5.3.68-.732ZM.86 6.347l5.3-5.5-.72-.694-5.3 5.5.72.694Z"
      />
    </symbol>
    <symbol id="goto" viewBox="0 0 24 24" fill="currentColor">
      <path
        fill="currentColor"
        fill-rule="evenodd"
        d="M5 7a1 1 0 0 0-1 1v11a1 1 0 0 0 1 1h11a1 1 0 0 0 1-1v-6a1 1 0 1 1 2 0v6a3 3 0 0 1-3 3H5a3 3 0 0 1-3-3V8a3 3 0 0 1 3-3h6a1 1 0 1 1 0 2H5Z"
        clip-rule="evenodd"
      />
      <path
        fill="currentColor"
        fill-rule="evenodd"
        d="M21.707 2.293a1 1 0 0 1 0 1.414l-11 11a1 1 0 0 1-1.414-1.414l11-11a1 1 0 0 1 1.414 0Z"
        clip-rule="evenodd"
      />
      <path
        fill="currentColor"
        fill-rule="evenodd"
        d="M14 3a1 1 0 0 1 1-1h6a1 1 0 0 1 1 1v6a1 1 0 1 1-2 0V4h-5a1 1 0 0 1-1-1Z"
        clip-rule="evenodd"
      />
    </symbol>
    <symbol id="arrow-next" viewBox="0 0 24 11" fill="none">
      <path
        d="M23 5.5L7 5.5L5.3662e-08 5.5M23 5.5L18 10M23 5.5L18 1"
        stroke="currentColor"
      />
    </symbol>
    <symbol id="menu" viewBox="0 0 24 24" fill="currentColor">
      <path
        fill="currentColor"
        fill-rule="evenodd"
        d="M20 18c.6 0 1-.4 1-1s-.4-1-1-1H4c-.6 0-1 .4-1 1s.4 1 1 1h16zm0-5c.6 0 1-.4 1-1s-.4-1-1-1H4c-.6 0-1 .4-1 1s.4 1 1 1h16zM3 7c0 .6.4 1 1 1h16c.6 0 1-.4 1-1s-.4-1-1-1H4c-.6 0-1 .4-1 1z"
        clip-rule="evenodd"
      />
    </symbol>
    <symbol id="close" viewBox="0 0 24 24" fill="currentColor">
      <path
        fill="currentColor"
        fill-rule="evenodd"
        d="M13.8,12l7.6-7.6c0.5-0.5,0.5-1.3,0-1.8s-1.3-0.5-1.8,0L12,10.2L4.4,2.6c-0.5-0.5-1.3-0.5-1.8,0s-0.5,1.3,0,1.8l7.6,7.6
	l-7.6,7.6c-0.5,0.5-0.5,1.3,0,1.8c0.2,0.2,0.6,0.4,0.9,0.4s0.6-0.1,0.9-0.4l7.6-7.6l7.6,7.6c0.2,0.2,0.6,0.4,0.9,0.4
	s0.6-0.1,0.9-0.4c0.5-0.5,0.5-1.3,0-1.8L13.8,12z"
      />
    </symbol>
    <symbol id="chevron-right" viewBox="0 0 18 34" fill="none">
      <path
        d="M1 33L17 17L1 1"
        stroke="currentColor"
        stroke-width="3"
        stroke-linecap="round"
        stroke-linejoin="round"
      />
    </symbol>
    <symbol id="chevron-left" viewBox="0 0 18 34" fill="none">
      <path
        d="M17 33L1 17L17 1"
        stroke="currentColor"
        stroke-width="3"
        stroke-linecap="round"
        stroke-linejoin="round"
      />
    </symbol>
    <symbol id="chevron-down" viewBox="0 0 34 18" fill="none">
      <path
        d="M0.999999 0.999999L17 17L33 1"
        stroke="currentColor"
        stroke-width="3"
        stroke-linecap="round"
        stroke-linejoin="round"
      />
    </symbol>
    <symbol id="chevron-up" viewBox="0 0 34 18" fill="none">
      <path
        d="M33 17L17 1L1 17"
        stroke="currentColor"
        stroke-width="3"
        stroke-linecap="round"
        stroke-linejoin="round"
      />
    </symbol>
    <symbol id="phone" width="24" height="24" fill="none">
      <path
        fill="currentColor"
        d="M6.62,10.79a15.15,15.15,0,0,0,6.59,6.59l2.2-2.2a1,1,0,0,1,1-.24,11.41,11.41,0,0,0,3.57.57,1,1,0,0,1,1,1V20a1,1,0,0,1-1,1A17,17,0,0,1,3,4,1,1,0,0,1,4,3H7.5a1,1,0,0,1,1,1,11.36,11.36,0,0,0,.57,3.57,1,1,0,0,1-.25,1l-2.2,2.2Z"
        transform="translate(-3 -3)"
      />
    </symbol>
    <symbol id="mail" viewBox="0 0 24 24" fill="none">
      <path
        fill="currentColor"
        d="M51.34,25.72h-16a3,3,0,0,0-3,3v12a3,3,0,0,0,3,3h16a3,3,0,0,0,3-3v-12A3,3,0,0,0,51.34,25.72Zm1,15a1,1,0,0,1-1,1h-16a1,1,0,0,1-1-1v-12a1,1,0,0,1,1-1h16a1,1,0,0,1,1,1Z"
        transform="translate(-32.34 -25.72)"
      /><path
        fill="currentColor"
        d="M36.82,31.72a1,1,0,0,1-.34-1.37h0A1,1,0,0,1,37.86,30l6.51,3.93-1,1.71Z"
        transform="translate(-32.34 -25.72)"
      /><path
        fill="currentColor"
        d="M50,31.58a1,1,0,0,0,.34-1.37h0A1,1,0,0,0,49,29.86l-6.52,3.93.87,1.85Z"
        transform="translate(-32.34 -25.72)"
      />
    </symbol>
    <symbol id="mobile" viewBox="0 0 24 24" fill="none">
     <path
        fill="currentColor"
        d="M19,22.5H5a.5.5,0,0,1-.5-.5V2A.5.5,0,0,1,5,1.5H19a.5.5,0,0,1,.5.5V22A.5.5,0,0,1,19,22.5Zm-13.5-1h13V2.5H5.5Z"
        transform="translate(-4.5 -1.5)"
      />
        <rect fill="currentColor" x="2" y="2" width="11" height="14.5" />
        <circle fill="currentColor" cx="7.5" cy="18.5" r="1" />
    </symbol>
    <symbol id="trekking" viewBox="0 0 24 24" fill="none">
      <path
        fill="currentColor"
        d="M22.9,17.9c0-0.3,0.4-2.7-1.9-4.1c-2.2-1.4-6.3,0.3-10.9-4.1c0.4,0,0.7-0.3,0.7-0.7V5.7C10.7,5.3,10.4,5,10,5
      H9.8l0-1.3c0-0.2-0.1-0.4-0.4-0.4C9.2,3.4,9,3.5,9,3.7v1.2l-6.7,0V3.7c0-0.2-0.1-0.4-0.4-0.4c-0.2,0-0.4,0.1-0.4,0.4v1.2l-0.3,0
      C1,4.9,0.6,5.3,0.6,5.7V9c0,0.4,0.3,0.7,0.7,0.7h0.1v8.1c-0.5,0-1,0.5-1,1.1v1.4c0,0.2,0.1,0.4,0.4,0.4h22.3c0.2,0,0.4-0.1,0.4-0.4
      v-1.4C23.5,18.5,23.2,18.1,22.9,17.9z M22.2,17.8h-1.3c-1.5-0.7-2.2-2.4-1.7-3.9c0.6,0,1.1,0.2,1.5,0.5
      C22.5,15.6,22.1,17.6,22.2,17.8z M1.4,5.7H10V9H1.4V5.7z M9,9.7c0.4,0.4,0.9,0.8,1.3,1.2l-0.8,0.9c-0.1,0.1-0.1,0.4,0,0.5
      c0.1,0.1,0.4,0.1,0.5,0l0.9-0.9c0.3,0.2,0.6,0.4,0.9,0.6l-0.9,0.9c-0.1,0.1-0.1,0.4,0,0.5c0.1,0.1,0.4,0.1,0.5,0l1-1
      c0.3,0.2,0.6,0.3,1,0.4l-0.8,0.8c-0.1,0.1-0.1,0.4,0,0.5c0.1,0.1,0.4,0.1,0.5,0l1-1c0.3,0.1,0.6,0.2,0.9,0.3l-1,1.2
      c-0.1,0.1-0.1,0.4,0,0.5c0.1,0.1,0.4,0.1,0.5,0l1.3-1.4c1,0.2,1.9,0.3,2.5,0.4c-0.4,1.5,0.1,3,1.2,4H6.8c-0.2-2.4-2.1-4.4-4.6-4.6
      V9.7L9,9.7z M2.2,14c2.1,0.2,3.7,1.8,3.9,3.9H2.2V14z M22.8,19.9H1.3v-1c0-0.5,0.6-0.4,0.6-0.4h20.6c0.2,0,0.4,0.1,0.4,0.4
      L22.8,19.9L22.8,19.9z"
      />
    </symbol>
    <symbol id="heart" viewBox="0 0 24 24" fill="none">
      <path
        fill="currentColor"
        d="M7.3,3.3c1.2,0,2.4,0.5,3.4,1.4L12,5.9l1.4-1.3c1-0.9,2.2-1.4,3.4-1.4c1.4,0,2.9,0.7,3.9,1.9
        c1.9,2.3,1.6,5.9-0.5,7.9l-0.3,0.2L12,20.7l-7.8-7.4l-0.3-0.2c-2.1-2-2.4-5.6-0.5-7.9C4.4,3.9,5.8,3.3,7.3,3.3 M7.3,2
        C5.5,2,3.7,2.9,2.5,4.4C1.4,5.7,0.9,7.5,1,9.3c0.1,1.8,0.9,3.5,2.1,4.7l0.3,0.2l7.8,7.4c0.2,0.2,0.5,0.3,0.7,0.3s0.5-0.1,0.7-0.3
        l7.8-7.4l0.2-0.2c1.3-1.2,2-2.9,2.1-4.7c0.1-1.8-0.4-3.6-1.5-5C20.3,2.9,18.5,2,16.7,2c-1.5,0-3,0.6-4.1,1.7L12,4.3l-0.6-0.6
        C10.3,2.6,8.8,2,7.3,2L7.3,2z"
      />
    </symbol>
    <symbol id="estate" viewBox="0 0 24 24" fill="none">
        <path
        fill="currentColor"
        fill-rule="evenodd"
        clip-rule="evenodd"
        d="M12.0001 0C11.8012 0 11.6103 0.0790205 11.4697 0.219644C11.3291 0.360268 11.2501 0.551121 11.2501 0.750005V4.50136C11.2501 4.70024 11.3291 4.8911 11.4697 5.03172C11.6103 5.17234 11.8012 5.25136 12.0001 5.25136C12.199 5.25136 12.3898 5.17234 12.5304 5.03172C12.6711 4.8911 12.7501 4.70024 12.7501 4.50136V0.750005C12.7501 0.551121 12.6711 0.360268 12.5304 0.219644C12.3898 0.0790205 12.199 0 12.0001 0ZM4.05388 3.29651C4.04501 3.29667 4.03631 3.29684 4.02743 3.29734C3.83508 3.3017 3.65176 3.37988 3.5155 3.51548C3.37488 3.6561 3.29586 3.84696 3.29586 4.04584C3.29586 4.24472 3.37488 4.43541 3.5155 4.57603L6.16765 7.22732C6.30827 7.36778 6.49879 7.44663 6.69749 7.44663C6.89621 7.44663 7.08689 7.36778 7.22751 7.22732C7.3678 7.0867 7.44665 6.89618 7.44665 6.69747C7.44665 6.49876 7.3678 6.30824 7.22751 6.16763L4.57537 3.51548C4.43675 3.37736 4.24959 3.29868 4.05388 3.29651ZM19.963 3.29651C19.9541 3.29667 19.9454 3.29684 19.9367 3.29734C19.7443 3.3017 19.561 3.37988 19.4246 3.51548L16.7725 6.16745L16.7726 6.16762C16.6322 6.30825 16.5533 6.49876 16.5533 6.69747C16.5533 6.89619 16.6322 7.0867 16.7726 7.22731C16.9132 7.36861 17.1044 7.44813 17.304 7.44813C17.5034 7.44813 17.6945 7.36861 17.8353 7.22731L20.4844 4.57603C20.625 4.4354 20.7041 4.24472 20.7041 4.04584C20.7041 3.84696 20.625 3.6561 20.4844 3.51548C20.3458 3.37736 20.1586 3.29868 19.9629 3.2965L19.963 3.29651ZM12.0001 6.00137C8.69521 6.00137 6.00175 8.69504 6.00175 11.9997C6.00175 15.3044 8.69543 18.001 12.0001 18.001C15.3047 18.001 18.0018 15.3045 18.0018 11.9997C18.0018 8.695 15.3052 6.00137 12.0001 6.00137ZM12.0001 7.50206C14.4942 7.50206 16.501 9.50565 16.501 12C16.501 14.494 14.4944 16.5013 12.0001 16.5013C9.50578 16.5013 7.49834 14.494 7.49834 12C7.49834 9.50586 9.50561 7.50206 12.0001 7.50206ZM0.750005 11.2497C0.551121 11.2497 0.360268 11.3288 0.219645 11.4694C0.0790208 11.61 2.66006e-07 11.8009 2.66006e-07 11.9997C-0.000167135 12.1988 0.0786823 12.3896 0.219477 12.5304C0.360101 12.6712 0.550954 12.7504 0.750009 12.7504H4.50072C4.69977 12.7504 4.89062 12.6712 5.03142 12.5304C5.17205 12.3896 5.25107 12.1988 5.25073 11.9997C5.25073 11.8009 5.17171 11.61 5.03109 11.4694C4.89047 11.3288 4.69978 11.2497 4.50073 11.2497H0.750005ZM19.4993 11.2497C19.3002 11.2496 19.1092 11.3284 18.9684 11.4692C18.8276 11.6098 18.7484 11.8007 18.7484 11.9997C18.7482 12.1988 18.8273 12.39 18.9681 12.5308C19.109 12.6716 19.3 12.7506 19.4993 12.7504H23.25C23.449 12.7504 23.6399 12.6712 23.7805 12.5305C23.9213 12.3897 24.0002 12.1988 24 11.9997C24 11.8009 23.921 11.61 23.7804 11.4694C23.6397 11.3288 23.4489 11.2497 23.25 11.2497L19.4993 11.2497ZM6.67976 16.5559C6.4874 16.5604 6.30409 16.6389 6.16783 16.7749L3.51568 19.4269C3.37522 19.5675 3.29637 19.7582 3.29637 19.9569C3.29637 20.1554 3.37522 20.3461 3.51568 20.4867C3.6563 20.627 3.84682 20.7059 4.04553 20.7059C4.24423 20.7059 4.43492 20.627 4.57554 20.4867L7.22769 17.8354C7.36815 17.6948 7.44717 17.504 7.44717 17.3051C7.44717 17.1062 7.36815 16.9155 7.22769 16.7749C7.08255 16.6301 6.88466 16.5511 6.67976 16.5559ZM17.2874 16.5559C17.094 16.5598 16.9096 16.6383 16.7726 16.7749C16.632 16.9155 16.553 17.1062 16.553 17.3051C16.553 17.504 16.632 17.6948 16.7726 17.8354L19.4247 20.4867H19.4246C19.5652 20.627 19.7559 20.7059 19.9546 20.7059C20.1533 20.7059 20.3438 20.627 20.4844 20.4867C20.6249 20.3461 20.7037 20.1554 20.7037 19.9569C20.7037 19.7582 20.6249 19.5675 20.4844 19.4269L17.8353 16.7749C17.6902 16.6301 17.4923 16.5511 17.2874 16.5559ZM12.0001 18.7517C11.8012 18.7517 11.6103 18.8307 11.4697 18.9713C11.3291 19.1119 11.2501 19.3026 11.2501 19.5017V23.2493C11.2499 23.4484 11.3288 23.6392 11.4696 23.78C11.6102 23.9208 11.801 24 12.0001 24C12.1991 24 12.39 23.9208 12.5306 23.78C12.6714 23.6392 12.7503 23.4484 12.7501 23.2493V19.5017C12.7501 19.3026 12.6711 19.1119 12.5304 18.9713C12.3898 18.8307 12.199 18.7517 12.0001 18.7517Z"
      />
    </symbol>
    <symbol id="autunno" viewBox="0 0 24 24" fill="none">
      <path
        fill="currentColor"
        d="M20.9251 0.469582C20.5963 0.155334 20.1675 -0.00787735 19.7091 0.000292363L11.0206 0.237808C8.43231 0.307737 5.9201 0.878527 3.5558 1.93407C1.45127 2.87404 0.0900088 4.88731 0.00420447 7.19126C-0.0807204 9.49405 1.12604 11.6033 3.15575 12.6971L6.41645 14.4516L2.98887 17.8792C2.71439 18.1537 2.71439 18.5982 2.98887 18.8727C3.12611 19.0099 3.30591 19.0785 3.48571 19.0785C3.6655 19.0785 3.8453 19.0099 3.98254 18.8727L7.27203 15.5829L9.02897 18.845C10.0955 20.8241 12.064 22 14.3071 22C14.3303 22 14.3544 22 14.3779 21.9988C16.6501 21.974 18.6225 20.7512 19.6561 18.7285C20.9496 16.1952 21.6117 13.3517 21.5711 10.5083L21.4455 1.66629C21.4394 1.21097 21.254 0.785476 20.9253 0.469803L20.9251 0.469582ZM18.4041 18.0889C17.6129 19.6382 16.102 20.5757 14.3618 20.5947C12.6407 20.5727 11.0915 19.7109 10.2659 18.1779L8.30968 14.5448L9.18388 13.6703L15.3366 14.4134C15.3654 14.4174 15.3936 14.4189 15.4215 14.4189C15.7722 14.4189 16.0748 14.157 16.1181 13.7999C16.1648 13.4157 15.8903 13.0657 15.5046 13.0192L10.446 12.4081L13.3163 9.53836L16.585 9.93161C16.6138 9.93562 16.642 9.93719 16.67 9.93719C17.0206 9.93719 17.3239 9.67526 17.3665 9.31812C17.4132 8.93255 17.138 8.58253 16.753 8.5374L14.5786 8.27582L17.6588 5.19561C17.9332 4.92113 17.9332 4.47663 17.6588 4.20212C17.3843 3.92764 16.9398 3.92764 16.6653 4.20212L13.5934 7.27483L13.3243 5.10508C13.2771 4.7209 12.9255 4.45181 12.5408 4.49436C12.1558 4.54231 11.882 4.89231 11.9301 5.27789L12.3336 8.53439L9.46265 11.4052L8.84166 6.35379C8.7944 5.96961 8.44284 5.67856 8.05813 5.74307C7.67308 5.78981 7.39929 6.14103 7.44692 6.52661L8.20237 12.6655L7.45442 13.4134L3.8226 11.4587C2.24509 10.6093 1.34281 9.03247 1.40923 7.24291C1.47568 5.45195 2.49273 3.94783 4.12935 3.21787C6.32436 2.23661 8.65572 1.70679 11.0598 1.64228L19.7482 1.40476H19.7564C19.8551 1.40476 19.9217 1.45429 19.9526 1.48306C19.9849 1.51463 20.0391 1.58177 20.0403 1.68483L20.1659 10.5264C20.2027 13.144 19.5934 15.7586 18.4042 18.0885L18.4041 18.0889Z"
      />
    </symbol>
    <symbol id="inverno" viewBox="0 0 24 24" fill="none">
      <path
        fill="currentColor"
        d="M15.8966 8.2841L19.483 9.78841C19.5487 9.8174 19.6199 9.83215 19.6917 9.83168C19.8164 9.83088 19.937 9.78712 20.0332 9.70778C20.1294 9.62843 20.1953 9.51836 20.2198 9.39611C20.2443 9.27385 20.2259 9.14688 20.1678 9.03659C20.1096 8.9263 20.0152 8.83943 19.9004 8.79063L17.0293 7.58667L19.8292 5.86091C19.8945 5.82608 19.952 5.77823 19.9981 5.72032C20.0443 5.66241 20.078 5.59567 20.0974 5.5242C20.1167 5.45273 20.1213 5.37806 20.1106 5.30478C20.1 5.23151 20.0745 5.16118 20.0357 5.09815C19.9969 5.03511 19.9455 4.98069 19.8849 4.93825C19.8242 4.89581 19.7555 4.86625 19.6829 4.85138C19.6104 4.83652 19.5356 4.83667 19.4631 4.85182C19.3906 4.86697 19.322 4.89681 19.2615 4.93949L16.5889 6.58889L16.9987 3.71518C17.0137 3.64257 17.0137 3.56765 16.9986 3.49507C16.9835 3.42248 16.9536 3.35376 16.9109 3.29315C16.8682 3.23255 16.8135 3.18135 16.7503 3.14272C16.687 3.10409 16.6164 3.07885 16.543 3.06856C16.4696 3.05827 16.3948 3.06315 16.3234 3.0829C16.2519 3.10265 16.1853 3.13684 16.1275 3.18337C16.0698 3.22989 16.0222 3.28777 15.9878 3.35341C15.9533 3.41905 15.9327 3.49106 15.9271 3.565L15.4002 7.3245L10.8186 10.1498V4.90895L13.8857 2.56213C13.9421 2.51901 13.9893 2.46522 14.0249 2.40382C14.0604 2.34243 14.0835 2.27464 14.0928 2.20433C14.1022 2.13401 14.0976 2.06254 14.0793 1.99401C14.061 1.92547 14.0294 1.8612 13.9863 1.80488C13.9432 1.74856 13.8894 1.70128 13.828 1.66574C13.7666 1.63021 13.6988 1.60712 13.6285 1.59778C13.5582 1.58844 13.4867 1.59305 13.4182 1.61133C13.3496 1.62961 13.2854 1.66122 13.229 1.70434L10.8186 3.54718V0.57929C10.8237 0.505139 10.8135 0.430732 10.7886 0.360693C10.7637 0.290655 10.7247 0.22648 10.674 0.172154C10.6232 0.117829 10.5619 0.0745134 10.4937 0.044898C10.4255 0.0152827 10.352 0 10.2777 0C10.2034 0 10.1298 0.0152827 10.0617 0.044898C9.99349 0.0745134 9.93214 0.117829 9.88142 0.172154C9.83069 0.22648 9.79168 0.290655 9.7668 0.360693C9.74192 0.430732 9.73171 0.505139 9.7368 0.57929V3.537L7.37471 1.70688C7.26129 1.61913 7.11767 1.58001 6.97542 1.59815C6.83317 1.61629 6.70395 1.6902 6.61619 1.80361C6.52843 1.91702 6.48932 2.06065 6.50746 2.2029C6.5256 2.34515 6.5995 2.47437 6.71291 2.56213L9.7368 4.9064V10.1498L4.85734 7.14887L4.33554 3.43009C4.30768 3.2952 4.22951 3.17598 4.11692 3.09663C4.00433 3.01728 3.86576 2.98376 3.72935 3.00288C3.59294 3.02199 3.46893 3.09231 3.38249 3.19955C3.29605 3.30679 3.25367 3.44292 3.26395 3.58027L3.66103 6.40308L1.27348 4.93186C1.15175 4.86696 1.00986 4.8509 0.876702 4.88695C0.743548 4.923 0.629145 5.00846 0.556792 5.12591C0.484439 5.24336 0.459582 5.38397 0.487278 5.51911C0.514974 5.65425 0.593136 5.77375 0.705857 5.85328L3.25122 7.42886L0.341872 8.65063C0.226129 8.69834 0.130575 8.7848 0.0715749 8.89522C0.012575 9.00563 -0.00620092 9.13312 0.0184663 9.25586C0.0431335 9.37859 0.109712 9.48893 0.20679 9.56798C0.303867 9.64702 0.425407 9.68986 0.550593 9.68914C0.622441 9.68961 0.693575 9.67486 0.759315 9.64587L4.38391 8.11865L9.22009 11.1044L4.33554 14.1155L0.741496 12.7181C0.674643 12.6924 0.603377 12.6801 0.531764 12.6819C0.460151 12.6837 0.389594 12.6996 0.324123 12.7286C0.258651 12.7577 0.199548 12.7994 0.150185 12.8513C0.100823 12.9032 0.0621637 12.9643 0.0364255 13.0312C0.0106874 13.098 -0.00163126 13.1693 0.000173073 13.2409C0.00197741 13.3125 0.017871 13.3831 0.0469432 13.4486C0.0760153 13.514 0.117699 13.5731 0.169613 13.6225C0.221527 13.6719 0.282655 13.7105 0.349508 13.7363L3.17995 14.8359L0.690585 16.3631C0.589804 16.4245 0.511955 16.5173 0.468961 16.6273C0.425968 16.7372 0.420205 16.8582 0.452556 16.9717C0.484907 17.0852 0.553587 17.185 0.648072 17.2557C0.742557 17.3265 0.85763 17.3643 0.975665 17.3634C1.07566 17.3636 1.17366 17.3354 1.2582 17.282L3.54903 15.8693L3.15959 18.6463C3.14954 18.7167 3.15349 18.7883 3.17123 18.8572C3.18897 18.926 3.22014 18.9907 3.26296 19.0475C3.30577 19.1042 3.35938 19.152 3.4207 19.188C3.48203 19.224 3.54986 19.2475 3.6203 19.2572H3.69412C3.82473 19.2572 3.95098 19.2101 4.04965 19.1246C4.14832 19.039 4.21279 18.9207 4.23118 18.7914L4.74026 15.1286L9.70626 12.0741V17.3481L6.74855 19.7382C6.68842 19.7812 6.6377 19.8359 6.5995 19.8992C6.5613 19.9624 6.53643 20.0328 6.52641 20.106C6.5164 20.1792 6.52145 20.2536 6.54125 20.3248C6.56106 20.396 6.59519 20.4624 6.64158 20.5199C6.68796 20.5774 6.74562 20.6248 6.81099 20.6592C6.87636 20.6936 6.94808 20.7143 7.02174 20.72C7.0954 20.7257 7.16944 20.7163 7.23933 20.6924C7.30922 20.6684 7.37348 20.6304 7.42816 20.5807L9.70371 18.7404V21.4207C9.69862 21.4949 9.70883 21.5693 9.73371 21.6393C9.75859 21.7093 9.7976 21.7735 9.84832 21.8278C9.89905 21.8822 9.96041 21.9255 10.0286 21.9551C10.0967 21.9847 10.1703 22 10.2446 22C10.3189 22 10.3925 21.9847 10.4606 21.9551C10.5288 21.9255 10.5902 21.8822 10.6409 21.8278C10.6916 21.7735 10.7306 21.7093 10.7555 21.6393C10.7804 21.5693 10.7906 21.4949 10.7855 21.4207V18.8117L13.0941 20.5935C13.1886 20.6672 13.3052 20.7066 13.425 20.7055C13.5379 20.7058 13.648 20.6708 13.7399 20.6054C13.8318 20.5399 13.9008 20.4473 13.9374 20.3405C13.9739 20.2338 13.976 20.1182 13.9435 20.0102C13.9109 19.9022 13.8453 19.807 13.7559 19.7382L10.788 17.4474V12.1021L15.3977 14.9428L15.9424 18.8244C15.9602 18.9535 16.0242 19.0718 16.1224 19.1574C16.2207 19.2431 16.3466 19.2902 16.4769 19.2902H16.5507C16.6213 19.2809 16.6893 19.2576 16.7508 19.2217C16.8123 19.1858 16.8661 19.1381 16.9089 19.0812C16.9518 19.0244 16.9829 18.9596 17.0005 18.8906C17.0181 18.8216 17.0218 18.7498 17.0114 18.6794L16.5915 15.6835L19.2386 17.315C19.3241 17.3685 19.4229 17.3968 19.5237 17.3965C19.6415 17.3968 19.7562 17.3586 19.8503 17.2877C19.9443 17.2167 20.0126 17.1169 20.0446 17.0036C20.0766 16.8902 20.0707 16.7694 20.0276 16.6598C19.9846 16.5501 19.9068 16.4575 19.8063 16.3962L17.1922 14.7824L19.8241 13.7643C19.8909 13.7385 19.9521 13.6999 20.004 13.6505C20.0559 13.6011 20.0976 13.542 20.1266 13.4766C20.1557 13.4111 20.1716 13.3405 20.1734 13.2689C20.1752 13.1973 20.1629 13.126 20.1371 13.0592C20.1114 12.9923 20.0728 12.9312 20.0234 12.8793C19.974 12.8274 19.9149 12.7857 19.8495 12.7566C19.784 12.7276 19.7134 12.7117 19.6418 12.7099C19.5702 12.7081 19.4989 12.7204 19.4321 12.7461L16.0366 14.0646L11.2767 11.1324L15.8966 8.2841Z"
      />
    </symbol>
    <symbol id="primavera" viewBox="0 0 24 24" fill="none">
      <path
        d="M21.051 11.8694C21.6845 11.4923 22.2208 10.9724 22.6173 10.3511C23.0665 9.64428 23.3033 8.82309 23.2992 7.98585C23.2557 6.28578 22.4125 4.70643 21.0246 3.72392C20.0406 2.98332 18.8466 2.57456 17.6151 2.55706C16.4915 2.53773 15.4041 2.95616 14.5836 3.72392C14.4272 2.90491 14.06 2.14124 13.5183 1.50768C13.0801 1.01159 12.5332 0.623261 11.92 0.373154C11.3321 0.123438 10.6997 -0.00327476 10.0609 6.43128e-05C8.83606 0.0182732 7.64988 0.431499 6.67812 1.1773C4.77628 2.621 4.01448 4.90631 4.63768 6.80301H4.60052C4.08584 6.80264 3.57454 6.88737 3.08738 7.05347C2.15243 7.40984 1.35201 8.04977 0.79902 8.88359C0.245705 9.71783 -0.032627 10.7041 0.00304683 11.704C0.00341841 12.2187 0.0714222 12.7307 0.20557 13.2276C0.519576 14.5029 1.26237 15.6315 2.30956 16.4242C3.03716 16.9723 3.91859 17.2777 4.82937 17.2978C4.58077 17.8448 4.4377 18.4341 4.40871 19.0347C4.32882 21.5334 6.35327 23.6481 9.12879 23.9625L9.12842 23.9622C9.35509 23.9878 9.58251 24.0004 9.81031 23.9997C10.8817 24.0108 11.9336 23.715 12.8418 23.1472C13.8964 22.5088 14.6144 21.436 14.802 20.2171C15.4579 20.8533 16.2794 21.293 17.1728 21.485C17.4619 21.5441 17.7566 21.5746 18.0517 21.5757C20.2359 21.5757 22.1481 19.9774 22.8197 17.6654C23.2496 16.2474 23.1062 14.7171 22.4202 13.4035C22.0958 12.7881 21.6257 12.2615 21.0508 11.8695L21.051 11.8694ZM14.9459 6.9788C14.8478 6.32367 15.0061 5.65592 15.3881 5.11444C16.3524 3.81458 18.4672 3.74542 20.1026 4.95986H20.103C21.1101 5.64583 21.7325 6.76809 21.7808 7.98585C21.7857 8.53174 21.634 9.06796 21.3442 9.53058C20.1882 11.3577 17.1518 11.4804 16.0808 11.3685L15.516 11.3154C16.2466 10.8824 16.7728 10.1742 16.9757 9.34958C16.9965 9.24813 16.9556 9.14446 16.8716 9.08425C16.7873 9.02443 16.6758 9.0196 16.587 9.07236C15.9441 9.46998 15.2292 9.73642 14.4826 9.8557C14.9014 8.95828 15.0619 7.96204 14.946 6.97878L14.9459 6.9788ZM7.62648 2.39733C8.32434 1.85702 9.17824 1.55602 10.0609 1.53968C10.4908 1.53819 10.9167 1.62329 11.3128 1.79014C11.7059 1.9529 12.056 2.20448 12.3358 2.52517C13.7743 4.12345 13.0389 7.09066 12.6342 8.09219L12.4213 8.62507H12.4209C12.2195 7.79974 11.6929 7.09071 10.9612 6.6593C10.8739 6.6017 10.7609 6.6017 10.6736 6.6593C10.5918 6.72359 10.5562 6.83061 10.5829 6.93094C10.7836 7.64962 10.8397 8.40137 10.7483 9.14196C10.0066 8.49166 9.09912 8.06023 8.12698 7.89528C7.46776 7.80832 6.86869 7.46608 6.45963 6.94179C5.48493 5.68464 6.007 3.63336 7.62648 2.39733ZM5.49575 15.6461H5.49538C4.7113 15.8423 3.88035 15.6718 3.2368 15.1827C2.47835 14.6075 1.94065 13.7893 1.71319 12.8651C1.61249 12.4953 1.56233 12.1137 1.56381 11.7305C1.52888 11.0501 1.70799 10.3761 2.07588 9.80264C2.44376 9.22963 2.98184 8.78589 3.61508 8.53398C3.93726 8.42399 4.27579 8.36825 4.61652 8.36899C6.40135 8.36899 8.22851 9.74352 8.87844 10.372L9.28349 10.7714H9.28312C8.44367 10.6514 7.59161 10.8784 6.92303 11.4002C6.83756 11.4619 6.80115 11.5711 6.83273 11.6718C6.85949 11.7714 6.94348 11.8446 7.04566 11.8584C7.79519 11.9412 8.5198 12.175 9.17639 12.5455C8.29123 12.984 7.54472 13.6588 7.01884 14.4952C6.68403 15.0694 6.13368 15.4856 5.4901 15.6513L5.49575 15.6461ZM13.3109 19.908H13.3105C13.199 20.71 12.7282 21.4178 12.0322 21.8311C11.2187 22.3279 10.2604 22.5327 9.31505 22.4119C7.35451 22.1934 5.91633 20.7553 5.97474 19.0716C6.04943 16.9089 8.63838 15.2787 9.59711 14.8097L10.13 14.5752H10.1304C9.71305 15.3143 9.61309 16.1905 9.85314 17.0047C9.88584 17.1036 9.97316 17.1742 10.0768 17.1857C10.1816 17.1998 10.2842 17.1463 10.3325 17.0527C10.677 16.3983 11.1456 15.8175 11.7123 15.3425C11.8078 16.3295 12.1768 17.2704 12.778 18.0593C13.1886 18.5785 13.3782 19.2391 13.3053 19.8973L13.3109 19.908ZM12.2455 14.3092L12.2451 14.3088C11.6454 14.3147 11.0683 14.0817 10.6406 13.6611C10.2129 13.2408 9.96984 12.6678 9.96501 12.068C9.96055 11.4683 10.1943 10.8916 10.6153 10.4646C11.0363 10.0376 11.6101 9.79535 12.2095 9.79164C12.8093 9.78792 13.386 10.0228 13.8123 10.4442C14.2385 10.8659 14.4797 11.4401 14.4826 12.0395C14.4841 12.64 14.2459 13.2164 13.8208 13.6404C13.3957 14.0644 12.819 14.3011 12.2184 14.2985L12.2455 14.3092ZM21.3765 17.2233C20.8648 18.9118 19.5115 20.0039 18.0518 20.0039C17.8727 20.0024 17.6943 19.9827 17.5193 19.9452C15.3886 19.5082 14.2269 16.7063 13.95 15.6833L13.8062 15.1504L13.8058 15.1508C14.465 15.6851 15.3131 15.9293 16.1554 15.8271C16.2595 15.8156 16.3461 15.7416 16.3736 15.6406C16.4003 15.5402 16.3647 15.4336 16.2833 15.3689C15.6906 14.9118 15.1945 14.3414 14.8236 13.6911C15.8076 13.7703 16.7942 13.5748 17.6734 13.1263C18.2535 12.8 18.9391 12.7156 19.5809 12.8918C21.1045 13.2968 21.9141 15.257 21.3493 17.2124L21.3765 17.2233Z"
        fill="currentColor"
      />
    </symbol>
    <symbol id="location" viewBox="0 0 24 24" fill="none">
      <path
        d="M14.0714 7.28571C14.0714 8.18693 13.6515 9.65434 12.9671 11.4136C12.2917 13.1495 11.3882 15.0981 10.4806 16.9298C9.57362 18.76 8.66615 20.466 7.98513 21.7149C7.70981 22.2198 7.47166 22.6497 7.28572 22.9825C7.09977 22.6497 6.86162 22.2198 6.5863 21.7149C5.90528 20.466 4.99781 18.76 4.09087 16.9298C3.18319 15.0981 2.27974 13.1495 1.60437 11.4136C0.919915 9.65434 0.5 8.18693 0.5 7.28571C0.5 3.53807 3.53807 0.5 7.28572 0.5C11.0334 0.5 14.0714 3.53807 14.0714 7.28571Z"
        stroke="currentColor"
      />
    </symbol>
    <symbol id="ciclismo" viewBox="0 0 24 24" fill="none">
      <path
        d="M19.0869 6.31887C18.3283 6.32648 17.5799 6.4944 16.8907 6.81163L13.5524 1.35869L14.7337 0.784352C14.8324 0.737184 14.9083 0.652754 14.9447 0.549635C14.9811 0.446516 14.975 0.333155 14.9279 0.234491C14.8807 0.135826 14.7963 0.0599428 14.6931 0.0235298C14.59 -0.0128832 14.4767 -0.00684318 14.378 0.0403252L12.841 0.836566C12.7477 0.88184 12.6755 0.961502 12.6396 1.05884C12.6037 1.15619 12.6069 1.26365 12.6485 1.35869C12.6484 1.37989 12.6531 1.40083 12.6621 1.42002C12.6712 1.4392 12.6843 1.45615 12.7007 1.46964L13.8722 3.40803L8.9577 4.47838H8.92834L7.7764 3.17307H8.18756C8.29661 3.17307 8.4012 3.12975 8.47831 3.05264C8.55542 2.97553 8.59874 2.87095 8.59874 2.7619C8.59874 2.65285 8.55542 2.54827 8.47831 2.47116C8.4012 2.39405 8.29661 2.35073 8.18756 2.35073H5.90327C5.79422 2.35073 5.68965 2.39405 5.61254 2.47116C5.53543 2.54827 5.4921 2.65285 5.4921 2.7619C5.4921 2.87095 5.53543 2.97553 5.61254 3.05264C5.68965 3.12975 5.79422 3.17307 5.90327 3.17307H6.69951C6.69951 3.18 6.70226 3.18664 6.70716 3.19153C6.71206 3.19643 6.7187 3.19918 6.72562 3.19918L8.18104 4.83082C8.10129 4.92122 8.03632 5.02364 7.98851 5.1343L6.97363 6.69742C6.34257 6.41946 5.6595 6.27928 4.96998 6.28624C3.98701 6.28624 3.02612 6.57773 2.20881 7.12383C1.3915 7.66994 0.75449 8.44614 0.378325 9.35429C0.00215941 10.2624 -0.0962707 11.2617 0.0954968 12.2258C0.287264 13.1899 0.760617 14.0754 1.45568 14.7705C2.15074 15.4656 3.03631 15.9389 4.00039 16.1307C4.96447 16.3225 5.96376 16.224 6.87191 15.8479C7.78005 15.4717 8.55625 14.8347 9.10235 14.0174C9.64846 13.2001 9.93994 12.2392 9.93994 11.2562C9.9448 11.1088 9.93497 10.9612 9.91057 10.8157L12.6583 10.3229C12.8772 10.3114 13.0877 10.2343 13.2623 10.1016C13.4369 9.96891 13.5675 9.78678 13.6372 9.57889L14.9426 5.21588L16.15 7.19343C15.1784 7.87687 14.483 8.8849 14.189 10.0358C13.895 11.1867 14.0218 12.4048 14.5466 13.4705C15.0713 14.5361 15.9595 15.3793 17.051 15.8479C18.1425 16.3165 19.3656 16.3799 20.4996 16.0264C21.6337 15.673 22.6042 14.926 23.2362 13.9202C23.8682 12.9145 24.1201 11.716 23.9465 10.5409C23.7729 9.36577 23.1852 8.29132 22.2894 7.51122C21.3936 6.73112 20.2486 6.29669 19.0608 6.28624L19.0869 6.31887ZM9.15024 11.2888C9.1554 12.1123 8.9161 12.9187 8.46265 13.6061C8.00919 14.2935 7.36197 14.8308 6.60294 15.1501C5.84391 15.4694 5.00721 15.5563 4.19876 15.3998C3.39032 15.2432 2.6465 14.8503 2.06149 14.2708C1.47648 13.6913 1.07659 12.9512 0.912452 12.1443C0.748312 11.3373 0.827304 10.4999 1.13943 9.73785C1.45156 8.97584 1.98278 8.32359 2.66584 7.86367C3.34889 7.40376 4.15305 7.15687 4.9765 7.15427C5.51298 7.15686 6.04425 7.25979 6.54288 7.45776L4.84597 10.1075L4.81987 10.163C4.76391 10.3237 4.74951 10.496 4.77804 10.6637C4.80657 10.8315 4.8771 10.9893 4.98303 11.1224C5.08357 11.2606 5.21571 11.3727 5.36843 11.4493C5.52114 11.526 5.68999 11.5649 5.86085 11.563H5.89022L9.1535 10.9854V11.2888H9.15024ZM7.25427 7.80693C8.1046 8.36373 8.72024 9.21402 8.98381 10.1957L5.79885 10.7439C5.7611 10.7401 5.72453 10.7285 5.69142 10.71C5.6583 10.6915 5.62933 10.6664 5.60631 10.6362C5.56505 10.581 5.54638 10.5121 5.55411 10.4437L7.25427 7.80693ZM7.69482 7.15427L8.6738 5.59116L8.72601 5.48021L12.407 9.59847L9.79637 10.0651C9.46957 8.86966 8.71765 7.8346 7.68176 7.15427H7.69482ZM14.365 4.54365L13.0042 9.06329L9.5353 5.19631L14.1463 4.18143C14.2222 4.1906 14.2913 4.22929 14.3388 4.28911C14.3746 4.36667 14.3838 4.45383 14.365 4.53712V4.54365ZM19.0869 15.4691C18.2127 15.4662 17.3616 15.1881 16.6542 14.6744C15.9468 14.1607 15.4191 13.4374 15.1457 12.607C14.8724 11.7766 14.8674 10.8812 15.1314 10.0478C15.3954 9.21435 15.915 8.48516 16.6166 7.96356L18.7867 11.5075C18.8235 11.5681 18.876 11.6176 18.9386 11.6509C19.0012 11.6842 19.0716 11.7 19.1424 11.6968C19.2177 11.6921 19.2917 11.6745 19.361 11.6445C19.4063 11.6174 19.4457 11.5815 19.4771 11.5391C19.5085 11.4967 19.5312 11.4485 19.544 11.3972C19.5567 11.346 19.5592 11.2928 19.5513 11.2406C19.5434 11.1884 19.5254 11.1382 19.4981 11.0931L17.3313 7.5785C17.8952 7.31085 18.5121 7.17371 19.1363 7.17726C19.7604 7.18082 20.3758 7.32499 20.9366 7.59904C21.4974 7.8731 21.9892 8.27001 22.3755 8.76027C22.7618 9.25054 23.0327 9.82156 23.168 10.4309C23.3033 11.0402 23.2995 11.6722 23.157 12.2799C23.0145 12.8876 22.7368 13.4554 22.3447 13.941C21.9526 14.4266 21.4561 14.8177 20.8921 15.0851C20.3281 15.3524 19.7111 15.4893 19.0869 15.4854V15.4691Z"
        fill="currentColor"
      />
    </symbol>
    <symbol id="navigazione" viewBox="0 0 24 24" fill="none">
      <path
        d="M17.8505 22.462C17.7456 22.2503 17.489 22.1638 17.2775 22.2681C16.5481 22.6285 15.7807 22.8766 14.9782 23.0144L15.8274 18.7689C15.8717 18.5465 15.7345 18.3281 15.5151 18.2713L11.1571 17.1456L9.69125 0.390453C9.67048 0.155171 9.4637 -0.019258 9.22801 0.00170873C8.99273 0.0224691 8.81891 0.229664 8.83926 0.464946L9.00881 2.40296C4.62512 6.96755 2.29883 12.4862 1.90544 19.2712C1.89567 19.4368 1.98299 19.5932 2.12892 19.6719C2.19283 19.7063 2.26285 19.7234 2.33245 19.7234C2.42201 19.7234 2.51136 19.6951 2.58626 19.6398C5.27124 17.6564 7.77672 16.5835 10.2305 16.366L10.3054 17.2206L6.2095 19.0862C6.00292 19.1802 5.90563 19.4193 5.98847 19.6304L6.73439 21.5426C4.64267 21.14 2.50968 21.3748 0.271387 22.2539C0.0515702 22.3402 -0.0567077 22.5885 0.0297956 22.8083C0.116091 23.0281 0.363383 23.136 0.584237 23.0501C3.4396 21.929 6.10363 21.927 8.74375 23.0513C10.3985 23.6839 11.9722 24 13.4561 24C14.9521 24 16.356 23.678 17.6574 23.0352C17.8685 22.9308 17.9552 22.6744 17.8506 22.4623L17.8505 22.462ZM2.82413 18.4209C3.32869 12.5258 5.39313 7.64416 9.10946 3.54773L10.1562 15.5135C7.77387 15.7241 5.36406 16.6789 2.82413 18.4209V18.4209ZM9.06361 22.2584C8.62622 22.0724 8.188 21.9179 7.74839 21.7889L6.93203 19.6964L10.3848 18.1239L10.6899 21.6098C10.7094 21.8322 10.8956 22.0001 11.1152 22.0001C11.1279 22.0001 11.1403 21.9995 11.1531 21.9985C11.3884 21.9778 11.5622 21.7706 11.5418 21.5353L11.2367 18.0494L14.9099 18.9983L14.0858 23.119C12.5267 23.2254 10.847 22.9403 9.06361 22.2584Z"
        fill="currentColor"
      />
    </symbol>
    <symbol id="whatsapp" viewBox="0 0 21 21" fill="none">
      <path
        d="M15.5389 12.0669C15.498 12.0472 13.967 11.2934 13.695 11.1955C13.5839 11.1556 13.4649 11.1166 13.3384 11.1166C13.1317 11.1166 12.958 11.2197 12.8227 11.422C12.6698 11.6493 12.2068 12.1905 12.0638 12.3522C12.0451 12.3735 12.0196 12.399 12.0043 12.399C11.9906 12.399 11.7537 12.3014 11.682 12.2703C10.0397 11.5569 8.79311 9.84136 8.62217 9.55206C8.59777 9.51047 8.59674 9.49159 8.59654 9.49159C8.60254 9.46956 8.65777 9.4142 8.68627 9.38563C8.76965 9.30313 8.85999 9.19438 8.9474 9.08918C8.98879 9.03934 9.03024 8.98943 9.07095 8.94238C9.19777 8.79484 9.25422 8.68029 9.31967 8.54761L9.35397 8.47868C9.51379 8.16115 9.37729 7.8932 9.33317 7.80668C9.29697 7.73427 8.65054 6.17413 8.58181 6.01022C8.41654 5.6147 8.19815 5.43054 7.89468 5.43054C7.86652 5.43054 7.89467 5.43054 7.77658 5.43552C7.63279 5.44159 6.84972 5.54468 6.50349 5.76293C6.13633 5.99441 5.5152 6.73227 5.5152 8.02991C5.5152 9.19779 6.25633 10.3005 6.57454 10.7199C6.58245 10.7305 6.59697 10.7519 6.61804 10.7827C7.83665 12.5624 9.35581 13.8813 10.8958 14.4965C12.3784 15.0888 13.0805 15.1572 13.4797 15.1572H13.4797C13.6474 15.1572 13.7817 15.1441 13.9001 15.1324L13.9753 15.1252C14.4874 15.0798 15.613 14.4966 15.869 13.7851C16.0707 13.2247 16.1239 12.6125 15.9897 12.3903C15.8978 12.2392 15.7394 12.1632 15.5389 12.0669Z"
        fill="currentColor"
      />
      <path
        d="M10.6864 0C4.99894 0 0.371848 4.59232 0.371848 10.237C0.371848 12.0627 0.860439 13.8498 1.78601 15.4139L0.0144387 20.6397C-0.0185613 20.7372 0.00598416 20.8449 0.0780523 20.9183C0.130075 20.9714 0.200643 21 0.272711 21C0.300325 21 0.328143 20.9958 0.35528 20.9872L5.80437 19.2556C7.29551 20.0523 8.98082 20.4729 10.6865 20.4729C16.3734 20.473 21 15.8811 21 10.237C21 4.59232 16.3734 0 10.6864 0ZM10.6864 18.3405C9.08146 18.3405 7.52698 17.8771 6.19076 17.0003C6.14582 16.9707 6.09367 16.9556 6.04117 16.9556C6.01342 16.9556 5.9856 16.9598 5.95853 16.9684L3.22887 17.8361L4.11005 15.2364C4.13855 15.1523 4.1243 15.0595 4.0718 14.9877C3.05426 13.5974 2.51637 11.9547 2.51637 10.237C2.51637 5.76818 6.18142 2.13245 10.6863 2.13245C15.1907 2.13245 18.8553 5.76818 18.8553 10.237C18.8554 14.7053 15.1908 18.3405 10.6864 18.3405Z"
        fill="currentColor"
      />
    </symbol>
    <symbol id="instagram" viewBox="0 0 50 50" fill="none">
      <path
        fill="currentColor"
        d="M 16 3 C 8.8324839 3 3 8.8324839 3 16 L 3 34 C 3 41.167516 8.8324839 47 16 47 L 34 47 C 41.167516 47 47 41.167516 47 34 L 47 16 C 47 8.8324839 41.167516 3 34 3 L 16 3 z M 16 5 L 34 5 C 40.086484 5 45 9.9135161 45 16 L 45 34 C 45 40.086484 40.086484 45 34 45 L 16 45 C 9.9135161 45 5 40.086484 5 34 L 5 16 C 5 9.9135161 9.9135161 5 16 5 z M 37 11 A 2 2 0 0 0 35 13 A 2 2 0 0 0 37 15 A 2 2 0 0 0 39 13 A 2 2 0 0 0 37 11 z M 25 14 C 18.936712 14 14 18.936712 14 25 C 14 31.063288 18.936712 36 25 36 C 31.063288 36 36 31.063288 36 25 C 36 18.936712 31.063288 14 25 14 z M 25 16 C 29.982407 16 34 20.017593 34 25 C 34 29.982407 29.982407 34 25 34 C 20.017593 34 16 29.982407 16 25 C 16 20.017593 20.017593 16 25 16 z"
      />
    </symbol>
    <symbol id="youtube" viewBox="0 0 30 30" fill="none">
      <path fill="currentColor" d="M 7.4140625 3 L 9.1894531 9.4121094 L 9.1894531 12.488281 L 10.726562 12.488281 L 10.726562 9.4121094 L 12.525391 3 L 10.976562 3 L 10.332031 5.9179688 C 10.151031 6.7699687 10.035422 7.3753281 9.9824219 7.7363281 L 9.9355469 7.7363281 C 9.8605469 7.2313281 9.7439375 6.62125 9.5859375 5.90625 L 8.9648438 3 L 7.4140625 3 z M 14.318359 5.4199219 C 13.797359 5.4199219 13.376641 5.5224687 13.056641 5.7304688 C 12.735641 5.9374688 12.500609 6.2687031 12.349609 6.7207031 C 12.199609 7.1737031 12.123047 7.7715781 12.123047 8.5175781 L 12.123047 9.5234375 C 12.123047 10.261437 12.190266 10.853828 12.322266 11.298828 C 12.454266 11.743828 12.675281 12.072203 12.988281 12.283203 C 13.301281 12.494203 13.733203 12.600562 14.283203 12.601562 C 14.818203 12.601562 15.244641 12.497063 15.556641 12.289062 C 15.868641 12.081063 16.095375 11.755641 16.234375 11.306641 C 16.373375 10.857641 16.443359 10.264391 16.443359 9.5253906 L 16.443359 8.5175781 C 16.443359 7.7715781 16.371516 7.1755625 16.228516 6.7265625 C 16.085516 6.2785625 15.860781 5.9473281 15.550781 5.7363281 C 15.241781 5.5253281 14.830359 5.4199219 14.318359 5.4199219 z M 17.251953 5.5566406 L 17.251953 10.734375 C 17.251953 11.375375 17.362078 11.847437 17.580078 12.148438 C 17.799078 12.449437 18.137656 12.599609 18.597656 12.599609 C 19.260656 12.599609 19.758844 12.279672 20.089844 11.638672 L 20.123047 11.638672 L 20.259766 12.486328 L 21.480469 12.486328 L 21.480469 5.5566406 L 19.921875 5.5566406 L 19.921875 11.060547 C 19.861875 11.189547 19.769531 11.295906 19.644531 11.378906 C 19.519531 11.462906 19.389906 11.503906 19.253906 11.503906 C 19.094906 11.503906 18.982063 11.436687 18.914062 11.304688 C 18.846063 11.172688 18.8125 10.954531 18.8125 10.644531 L 18.8125 5.5566406 L 17.251953 5.5566406 z M 14.283203 6.4941406 C 14.501203 6.4941406 14.656187 6.6098437 14.742188 6.8398438 C 14.829188 7.0688437 14.871094 7.4316875 14.871094 7.9296875 L 14.871094 10.089844 C 14.871094 10.602844 14.828188 10.971266 14.742188 11.197266 C 14.656188 11.423266 14.502156 11.536109 14.285156 11.537109 C 14.067156 11.537109 13.915031 11.423266 13.832031 11.197266 C 13.748031 10.971266 13.707031 10.601844 13.707031 10.089844 L 13.707031 7.9296875 C 13.707031 7.4326875 13.751891 7.0698438 13.837891 6.8398438 C 13.923891 6.6108438 14.072203 6.4941406 14.283203 6.4941406 z M 6.5 13.900391 C 5.119 13.900391 4 15.019391 4 16.400391 L 4 24.400391 C 4 25.781391 5.119 26.900391 6.5 26.900391 L 23.5 26.900391 C 24.881 26.900391 26 25.781391 26 24.400391 L 26 16.400391 C 26 15.019391 24.881 13.900391 23.5 13.900391 L 6.5 13.900391 z M 15.058594 16.199219 L 16.328125 16.199219 L 16.328125 19.283203 L 16.337891 19.283203 C 16.451891 19.060203 16.614219 18.881141 16.824219 18.744141 C 17.034219 18.607141 17.261906 18.539062 17.503906 18.539062 C 17.815906 18.539062 18.059328 18.622109 18.236328 18.787109 C 18.413328 18.952109 18.544047 19.220844 18.623047 19.589844 C 18.702047 19.959844 18.742188 20.471953 18.742188 21.126953 L 18.742188 22.050781 C 18.742188 22.922781 18.637734 23.563609 18.427734 23.974609 C 18.217734 24.385609 17.888359 24.591797 17.443359 24.591797 C 17.195359 24.591797 16.969625 24.533922 16.765625 24.419922 C 16.561625 24.305922 16.410594 24.149172 16.308594 23.951172 L 16.279297 23.951172 L 16.146484 24.503906 L 15.058594 24.503906 L 15.058594 16.199219 z M 7.1835938 16.496094 L 11.087891 16.496094 L 11.087891 17.556641 L 9.7792969 17.556641 L 9.7792969 24.503906 L 8.4902344 24.503906 L 8.4902344 17.556641 L 7.1835938 17.556641 L 7.1835938 16.496094 z M 21.117188 18.542969 C 21.568188 18.542969 21.916203 18.624062 22.158203 18.789062 C 22.399203 18.955063 22.570922 19.2135 22.669922 19.5625 C 22.767922 19.9125 22.816406 20.396672 22.816406 21.013672 L 22.816406 22.017578 L 20.613281 22.017578 L 20.613281 22.314453 C 20.613281 22.690453 20.623484 22.971203 20.646484 23.158203 C 20.669484 23.345203 20.715156 23.483359 20.785156 23.568359 C 20.855156 23.654359 20.963375 23.697266 21.109375 23.697266 C 21.306375 23.697266 21.441625 23.62075 21.515625 23.46875 C 21.588625 23.31675 21.628766 23.061078 21.634766 22.705078 L 22.769531 22.771484 C 22.775531 22.821484 22.779297 22.893422 22.779297 22.982422 C 22.779297 23.523422 22.631937 23.927359 22.335938 24.193359 C 22.039938 24.461359 21.621078 24.595703 21.080078 24.595703 C 20.431078 24.595703 19.976844 24.391375 19.714844 23.984375 C 19.452844 23.577375 19.324219 22.94675 19.324219 22.09375 L 19.324219 21.072266 C 19.324219 20.194266 19.460469 19.553438 19.730469 19.148438 C 20.000469 18.743437 20.462188 18.542969 21.117188 18.542969 z M 12.949219 18.650391 L 14.267578 18.650391 L 14.267578 24.501953 L 14.263672 24.501953 L 14.263672 24.503906 L 13.232422 24.503906 L 13.119141 23.787109 L 13.089844 23.787109 C 12.809844 24.329109 12.390078 24.599609 11.830078 24.599609 C 11.441078 24.599609 11.155703 24.47375 10.970703 24.21875 C 10.785703 23.96475 10.693359 23.565391 10.693359 23.025391 L 10.693359 18.652344 L 12.013672 18.652344 L 12.013672 22.949219 C 12.013672 23.209219 12.042609 23.397813 12.099609 23.507812 C 12.157609 23.619812 12.251719 23.673828 12.386719 23.673828 C 12.500719 23.673828 12.609844 23.639359 12.714844 23.568359 C 12.820844 23.498359 12.897219 23.408781 12.949219 23.300781 L 12.949219 18.650391 z M 21.089844 19.431641 C 20.949844 19.431641 20.844344 19.472687 20.777344 19.554688 C 20.710344 19.637687 20.665531 19.772938 20.644531 19.960938 C 20.621531 20.147938 20.611328 20.433453 20.611328 20.814453 L 20.611328 21.234375 L 21.574219 21.234375 L 21.574219 20.814453 C 21.574219 20.438453 21.562109 20.154937 21.537109 19.960938 C 21.512109 19.765937 21.467391 19.630781 21.400391 19.550781 C 21.333391 19.471781 21.230844 19.431641 21.089844 19.431641 z M 16.910156 19.474609 C 16.783156 19.474609 16.664641 19.524953 16.556641 19.626953 C 16.448641 19.728953 16.372125 19.859578 16.328125 20.017578 L 16.328125 23.339844 C 16.386125 23.441844 16.460734 23.517359 16.552734 23.568359 C 16.644734 23.618359 16.744516 23.646484 16.853516 23.646484 C 16.993516 23.646484 17.1045 23.596141 17.1875 23.494141 C 17.2705 23.392141 17.329281 23.220516 17.363281 22.978516 C 17.398281 22.737516 17.416016 22.402562 17.416016 21.976562 L 17.416016 21.222656 C 17.416016 20.764656 17.402047 20.411109 17.373047 20.162109 C 17.345047 19.914109 17.292703 19.736812 17.220703 19.632812 C 17.147703 19.528813 17.045156 19.474609 16.910156 19.474609 z"/>    </symbol>
  </defs>
</svg>
