<svg xmlns="http://www.w3.org/2000/svg" width="0" height="0" class="hidden">
  <defs>
    <symbol id="copy" viewBox="0 0 24 24" fill="currentColor">
      <path d="M7 11h10v2H7z" />
      <path
        fill-rule="evenodd"
        d="M10 7H6a5 5 0 0 0 0 10h4v-2H6a3 3 0 1 1 0-6h4V7Zm4 8h4a3 3 0 1 0 0-6h-4V7h4a5 5 0 0 1 0 10h-4v-2Z"
        clip-rule="evenodd"
      />
    </symbol>
    <symbol id="link" viewBox="0 0 24 24" fill="currentColor">
      <path d="M7 11h10v2H7z" />
      <path
        fill-rule="evenodd"
        d="M10 7H6a5 5 0 0 0 0 10h4v-2H6a3 3 0 1 1 0-6h4V7Zm4 8h4a3 3 0 1 0 0-6h-4V7h4a5 5 0 0 1 0 10h-4v-2Z"
        clip-rule="evenodd"
      />
    </symbol>
    <symbol id="facebook" viewBox="0 0 24 24" fill="currentColor">
      <path
        d="M22 12c0-5.523-4.477-10-10-10S2 6.477 2 12c0 4.991 3.657 9.128 8.438 9.878v-6.987h-2.54V12h2.54V9.797c0-2.506 1.492-3.89 3.777-3.89 1.094 0 2.238.195 2.238.195v2.46h-1.26c-1.243 0-1.63.771-1.63 1.562V12h2.773l-.443 2.89h-2.33v6.988C18.343 21.128 22 16.991 22 12"
      />
    </symbol>
    <symbol id="linkedin" viewBox="0 0 24 24" fill="currentColor">
      <path
        d="M18.337 18.336H15.67v-4.177c0-.996-.018-2.278-1.387-2.278-1.39 0-1.602 1.085-1.602 2.206v4.249h-2.667v-8.59h2.56v1.174h.036a2.81 2.81 0 0 1 2.527-1.387c2.703 0 3.201 1.778 3.201 4.091v4.712ZM7.005 8.572c-.85 0-1.548-.698-1.548-1.547 0-.85.698-1.548 1.547-1.548.85 0 1.548.698 1.548 1.547 0 .85-.698 1.548-1.547 1.548Zm1.333 9.764h-2.67v-8.59h2.67v8.59ZM19.667 3H4.328A1.32 1.32 0 0 0 3 4.297V19.7a1.32 1.32 0 0 0 1.328 1.299h15.339a1.323 1.323 0 0 0 1.333-1.3V4.297A1.321 1.321 0 0 0 19.667 3Z"
      />
    </symbol>
    <symbol id="twitter" viewBox="0 0 24 24" fill="currentColor">
      <path
        d="M22 5.8a8.49 8.49 0 0 1-2.36.64 4.13 4.13 0 0 0 1.81-2.27 8.21 8.21 0 0 1-2.61 1 4.1 4.1 0 0 0-7 3.74 11.64 11.64 0 0 1-8.45-4.29 4.16 4.16 0 0 0-.55 2.07 4.09 4.09 0 0 0 1.82 3.41 4.05 4.05 0 0 1-1.86-.51v.05a4.1 4.1 0 0 0 3.3 4 3.933 3.933 0 0 1-1.1.17 4.907 4.907 0 0 1-.77-.07 4.11 4.11 0 0 0 3.83 2.84A8.22 8.22 0 0 1 2 18.28a11.57 11.57 0 0 0 6.29 1.85A11.589 11.589 0 0 0 20 8.45v-.53a8.43 8.43 0 0 0 2-2.12Z"
      />
    </symbol>
    <symbol id="back" viewBox="0 0 27 12" fill="currentColor">
      <path
        fill="currentColor"
        d="M25.6 6.5a.5.5 0 0 0 0-1v1Zm-25-1a.5.5 0 1 0 0 1v-1Zm5.26 6.166a.5.5 0 1 0 .68-.732l-.68.732ZM.5 6l-.36-.347a.5.5 0 0 0 .02.713L.5 6ZM6.16.847a.5.5 0 0 0-.72-.694l.72.694ZM25.6 5.5H.6v1h25v-1ZM6.54 10.934l-5.7-5.3-.68.732 5.7 5.3.68-.732ZM.86 6.347l5.3-5.5-.72-.694-5.3 5.5.72.694Z"
      />
    </symbol>
    <symbol id="goto" viewBox="0 0 24 24" fill="currentColor">
      <path
        fill="currentColor"
        fill-rule="evenodd"
        d="M5 7a1 1 0 0 0-1 1v11a1 1 0 0 0 1 1h11a1 1 0 0 0 1-1v-6a1 1 0 1 1 2 0v6a3 3 0 0 1-3 3H5a3 3 0 0 1-3-3V8a3 3 0 0 1 3-3h6a1 1 0 1 1 0 2H5Z"
        clip-rule="evenodd"
      />
      <path
        fill="currentColor"
        fill-rule="evenodd"
        d="M21.707 2.293a1 1 0 0 1 0 1.414l-11 11a1 1 0 0 1-1.414-1.414l11-11a1 1 0 0 1 1.414 0Z"
        clip-rule="evenodd"
      />
      <path
        fill="currentColor"
        fill-rule="evenodd"
        d="M14 3a1 1 0 0 1 1-1h6a1 1 0 0 1 1 1v6a1 1 0 1 1-2 0V4h-5a1 1 0 0 1-1-1Z"
        clip-rule="evenodd"
      />
    </symbol>
    <symbol id="arrow-prev" viewBox="0 0 60 60" fill="none">
      <path fill="none" d="M0 0h60v60H0z" />
      <path
        stroke="currentColor"
        stroke-linecap="round"
        stroke-linejoin="round"
        stroke-width="2"
        d="M35 45 20 29.68l15-15.32"
      />
    </symbol>
    <symbol id="arrow-next" viewBox="0 0 60 60" fill="none">
      <path fill="none" d="M0 0h60v60H0z" />
      <path
        stroke="currentColor"
        stroke-linecap="round"
        stroke-linejoin="round"
        stroke-width="2"
        d="m25 15 15 15.32-15 15.32"
      />
    </symbol>
    <symbol id="arrow-up" viewBox="0 0 24 24" fill="currentColor">
      <path
        fill="currentColor"
        fill-rule="evenodd"
        d="M19.3 11.3c.4.4.4 1 0 1.4-.4.4-1 .4-1.4 0L13 7.8V19c0 .6-.4 1-1 1s-1-.4-1-1V7.8l-4.9 4.9c-.4.4-1 .4-1.4 0-.4-.4-.4-1 0-1.4L12 4l7.3 7.3z"
        clip-rule="evenodd"
      />
    </symbol>
    <symbol id="arrow-down" viewBox="0 0 24 24" fill="currentColor">
      <path
        fill="currentColor"
        fill-rule="evenodd"
        d="M4.7 12.7c-.4-.4-.4-1 0-1.4.4-.4 1-.4 1.4 0l4.9 4.9V5c0-.6.4-1 1-1s1 .4 1 1v11.2l4.9-4.9c.4-.4 1-.4 1.4 0 .4.4.4 1 0 1.4L12 20l-7.3-7.3z"
        clip-rule="evenodd"
      />
    </symbol>
    <symbol id="menu" viewBox="0 0 24 24" fill="currentColor">
      <path
        fill="currentColor"
        fill-rule="evenodd"
        d="M20 18c.6 0 1-.4 1-1s-.4-1-1-1H4c-.6 0-1 .4-1 1s.4 1 1 1h16zm0-5c.6 0 1-.4 1-1s-.4-1-1-1H4c-.6 0-1 .4-1 1s.4 1 1 1h16zM3 7c0 .6.4 1 1 1h16c.6 0 1-.4 1-1s-.4-1-1-1H4c-.6 0-1 .4-1 1z"
        clip-rule="evenodd"
      />
    </symbol>
    <symbol id="close" viewBox="0 0 24 24" fill="currentColor">
      <path
        fill="currentColor"
        fill-rule="evenodd"
        d="M13.8,12l7.6-7.6c0.5-0.5,0.5-1.3,0-1.8s-1.3-0.5-1.8,0L12,10.2L4.4,2.6c-0.5-0.5-1.3-0.5-1.8,0s-0.5,1.3,0,1.8l7.6,7.6
	l-7.6,7.6c-0.5,0.5-0.5,1.3,0,1.8c0.2,0.2,0.6,0.4,0.9,0.4s0.6-0.1,0.9-0.4l7.6-7.6l7.6,7.6c0.2,0.2,0.6,0.4,0.9,0.4
	s0.6-0.1,0.9-0.4c0.5-0.5,0.5-1.3,0-1.8L13.8,12z"
      />
    </symbol>
    <symbol id="chevron-right" viewBox="0 0 18 34" fill="none">
      <path
        d="M1 33L17 17L1 1"
        stroke="currentColor"
        stroke-width="3"
        stroke-linecap="round"
        stroke-linejoin="round"
      />
    </symbol>
    <symbol id="chevron-left" viewBox="0 0 18 34" fill="none">
      <path
        d="M17 33L1 17L17 1"
        stroke="currentColor"
        stroke-width="3"
        stroke-linecap="round"
        stroke-linejoin="round"
      />
    </symbol>
    <symbol id="chevron-down" viewBox="0 0 34 18" fill="none">
      <path
        d="M0.999999 0.999999L17 17L33 1"
        stroke="currentColor"
        stroke-width="3"
        stroke-linecap="round"
        stroke-linejoin="round"
      />
    </symbol>
    <symbol id="chevron-up" viewBox="0 0 34 18" fill="none">
      <path
        d="M33 17L17 1L1 17"
        stroke="currentColor"
        stroke-width="3"
        stroke-linecap="round"
        stroke-linejoin="round"
      />
    </symbol>
    <symbol id="phone" width="24" height="24" fill="none">
      <path
        fill="currentColor"
        d="M6.62,10.79a15.15,15.15,0,0,0,6.59,6.59l2.2-2.2a1,1,0,0,1,1-.24,11.41,11.41,0,0,0,3.57.57,1,1,0,0,1,1,1V20a1,1,0,0,1-1,1A17,17,0,0,1,3,4,1,1,0,0,1,4,3H7.5a1,1,0,0,1,1,1,11.36,11.36,0,0,0,.57,3.57,1,1,0,0,1-.25,1l-2.2,2.2Z"
        transform="translate(-3 -3)"
      />
    </symbol>
    <symbol id="mail" viewBox="0 0 24 24" fill="none">
      <path
        fill="currentColor"
        d="M51.34,25.72h-16a3,3,0,0,0-3,3v12a3,3,0,0,0,3,3h16a3,3,0,0,0,3-3v-12A3,3,0,0,0,51.34,25.72Zm1,15a1,1,0,0,1-1,1h-16a1,1,0,0,1-1-1v-12a1,1,0,0,1,1-1h16a1,1,0,0,1,1,1Z"
        transform="translate(-32.34 -25.72)"
      /><path
        fill="currentColor"
        d="M36.82,31.72a1,1,0,0,1-.34-1.37h0A1,1,0,0,1,37.86,30l6.51,3.93-1,1.71Z"
        transform="translate(-32.34 -25.72)"
      /><path
        fill="currentColor"
        d="M50,31.58a1,1,0,0,0,.34-1.37h0A1,1,0,0,0,49,29.86l-6.52,3.93.87,1.85Z"
        transform="translate(-32.34 -25.72)"
      />
    </symbol>
    <symbol id="mobile" viewBox="0 0 24 24" fill="none">
     <path
        fill="currentColor"
        d="M19,22.5H5a.5.5,0,0,1-.5-.5V2A.5.5,0,0,1,5,1.5H19a.5.5,0,0,1,.5.5V22A.5.5,0,0,1,19,22.5Zm-13.5-1h13V2.5H5.5Z"
        transform="translate(-4.5 -1.5)"
      />
        <rect fill="currentColor" x="2" y="2" width="11" height="14.5" />
        <circle fill="currentColor" cx="7.5" cy="18.5" r="1" />
    </symbol>
  </defs>
</svg>
